<svg width="72" height="72" viewBox="0 0 72 72" fill="none" xmlns="http://www.w3.org/2000/svg">
<circle cx="36" cy="36" r="36" fill="#661CE7"/>
<path d="M28.9518 48.7241C27.3207 48.779 25.8699 48.4809 24.5993 47.8299C23.3283 47.1683 22.3201 46.2256 21.5745 45.002C20.8396 43.778 20.4448 42.3505 20.3899 40.7194L20.1404 33.2996C20.0855 31.6685 20.3836 30.2177 21.0346 28.9471C21.6962 27.6761 22.6391 26.6732 23.8631 25.9383C25.0867 25.1927 26.514 24.7925 28.1451 24.7377C29.7762 24.6828 31.2219 24.9864 32.4822 25.6484C33.7528 26.2994 34.7609 27.2367 35.5064 28.4604C36.252 29.684 36.6522 31.1114 36.707 32.7424L36.9565 40.1622C37.0114 41.7933 36.708 43.2443 36.0463 44.5153C35.3847 45.7862 34.442 46.7945 33.2184 47.5401C32.0051 48.2746 30.5829 48.6693 28.9518 48.7241ZM28.8286 45.0622C29.6388 45.0349 30.368 44.8183 31.016 44.4123C31.6637 43.9956 32.1685 43.4557 32.5304 42.7925C32.892 42.1186 33.0591 41.3766 33.0319 40.5664L32.7636 32.5869C32.7359 31.766 32.5193 31.0369 32.1137 30.3995C31.7077 29.7514 31.1677 29.2466 30.4938 28.8851C29.8196 28.5129 29.0774 28.3404 28.2672 28.3676C27.457 28.3949 26.728 28.6168 26.0803 29.0335C25.4323 29.4395 24.9275 29.9795 24.5659 30.6533C24.204 31.3165 24.0369 32.0586 24.0645 32.8794L24.3328 40.8589C24.3601 41.6691 24.5767 42.3983 24.9827 43.0463C25.3884 43.6837 25.9283 44.1885 26.6025 44.5607C27.2764 44.9223 28.0184 45.0894 28.8286 45.0622ZM45.7007 47.6806L45.0677 28.8592L40.8389 31.6429L40.6958 27.3893L44.9263 24.6536L48.8601 24.5213L49.6345 47.5483L45.7007 47.6806Z" fill="white"/>
</svg>
