<svg width="16" height="16" viewBox="0 0 16 16" fill="none" xmlns="http://www.w3.org/2000/svg">
<path fill-rule="evenodd" clip-rule="evenodd" d="M5.96631 9.00065C5.96631 8.63246 6.26479 8.33398 6.63298 8.33398H10.633C11.0012 8.33398 11.2996 8.63246 11.2996 9.00065C11.2996 9.36884 11.0012 9.66732 10.633 9.66732H6.63298C6.26479 9.66732 5.96631 9.36884 5.96631 9.00065Z" fill="#424551"/>
<path fill-rule="evenodd" clip-rule="evenodd" d="M5.96631 11.5007C5.96631 11.1325 6.26479 10.834 6.63298 10.834H8.63298C9.00117 10.834 9.29964 11.1325 9.29964 11.5007C9.29964 11.8688 9.00117 12.1673 8.63298 12.1673H6.63298C6.26479 12.1673 5.96631 11.8688 5.96631 11.5007Z" fill="#424551"/>
<path fill-rule="evenodd" clip-rule="evenodd" d="M6.66159 1.02925C6.78661 0.904222 6.95618 0.833984 7.13299 0.833984H11.633C13.1058 0.833984 14.2997 2.02789 14.2997 3.50065L14.2997 12.5007C14.2997 13.9734 13.1058 15.1673 11.633 15.1673H5.63298C4.16021 15.1673 2.9663 13.9734 2.96631 12.5006L2.96633 5.00065C2.96633 4.82384 3.03656 4.65427 3.16159 4.52925L6.66159 1.02925ZM6.9663 2.61015V4.83398H4.74247L6.9663 2.61015ZM4.29966 6.16732L4.29964 12.5006C4.29964 13.237 4.89659 13.834 5.63298 13.834H11.633C12.3694 13.834 12.9663 13.237 12.9663 12.5007L12.9663 3.50065C12.9663 2.76427 12.3694 2.16732 11.633 2.16732H8.29964V5.50065C8.29964 5.86884 8.00116 6.16732 7.63297 6.16732H4.29966Z" fill="#424551"/>
</svg>
