<svg width="17" height="16" viewBox="0 0 17 16" fill="none" xmlns="http://www.w3.org/2000/svg">
<g clip-path="url(#clip0_2606_163)">
<path fill-rule="evenodd" clip-rule="evenodd" d="M5.07047 0.833984C5.43866 0.833984 5.73714 1.13246 5.73714 1.50065V1.83399L10.4038 1.834V1.50065C10.4038 1.13246 10.7023 0.833985 11.0705 0.833984C11.4387 0.833984 11.7371 1.13246 11.7371 1.50065V1.834L12.5705 1.83401C14.0432 1.83401 15.2371 3.02792 15.2371 4.50067V12.5006C15.2371 13.9734 14.0432 15.1673 12.5705 15.1673L3.57048 15.1673C2.09771 15.1673 0.903809 13.9734 0.903809 12.5007L0.903809 6.00078L0.903809 4.50065C0.903809 3.02789 2.09772 1.83398 3.57048 1.83399L4.40381 1.83399V1.50065C4.40381 1.13246 4.70228 0.833984 5.07047 0.833984ZM4.40381 3.16732L3.57048 3.16732C2.8341 3.16732 2.23714 3.76427 2.23714 4.50065V5.33398H13.9038V4.50067C13.9038 3.76429 13.3069 3.16734 12.5705 3.16734L11.7371 3.16734V3.50065C11.7371 3.86884 11.4387 4.16732 11.0705 4.16732C10.7023 4.16732 10.4038 3.86884 10.4038 3.50065V3.16734L5.73714 3.16733V3.50065C5.73714 3.86884 5.43866 4.16732 5.07047 4.16732C4.70228 4.16732 4.40381 3.86884 4.40381 3.50065V3.16732ZM13.9038 6.66732H2.23714L2.23714 12.5007C2.23714 13.237 2.83409 13.834 3.57048 13.834L12.5705 13.834C13.3069 13.834 13.9038 13.237 13.9038 12.5006V6.66732Z" fill="#787A80"/>
</g>
<defs>
<clipPath id="clip0_2606_163">
<rect width="16" height="16" fill="white" transform="translate(0.0703125)"/>
</clipPath>
</defs>
</svg>
