<svg width="17" height="16" viewBox="0 0 17 16" fill="none" xmlns="http://www.w3.org/2000/svg">
<path d="M8.73682 4.33268C8.73682 3.96449 8.43834 3.66602 8.07015 3.66602C7.70196 3.66602 7.40348 3.96449 7.40348 4.33268V7.99935C7.40348 8.17616 7.47372 8.34573 7.59874 8.47075L9.59874 10.4708C9.85909 10.7311 10.2812 10.7311 10.5416 10.4708C10.8019 10.2104 10.8019 9.78829 10.5416 9.52794L8.73682 7.72321V4.33268Z" fill="#787A80"/>
<path fill-rule="evenodd" clip-rule="evenodd" d="M8.07015 0.666016C4.02006 0.666016 0.736816 3.94926 0.736816 7.99935C0.736816 12.0494 4.02006 15.3327 8.07015 15.3327C12.1202 15.3327 15.4035 12.0494 15.4035 7.99935C15.4035 3.94926 12.1202 0.666016 8.07015 0.666016ZM2.07015 7.99935C2.07015 4.68564 4.75644 1.99935 8.07015 1.99935C11.3839 1.99935 14.0701 4.68564 14.0701 7.99935C14.0701 11.3131 11.3839 13.9993 8.07015 13.9993C4.75644 13.9993 2.07015 11.3131 2.07015 7.99935Z" fill="#787A80"/>
</svg>
