<svg width="16" height="16" viewBox="0 0 16 16" fill="none" xmlns="http://www.w3.org/2000/svg">
<g clip-path="url(#clip0_2606_438)">
<path fill-rule="evenodd" clip-rule="evenodd" d="M11.5633 6.94002C12.2615 7.47368 12.2615 8.52507 11.5633 9.05873L8.50997 11.3924C7.63257 12.0629 6.36698 11.4373 6.36697 10.333V5.66575C6.36697 4.56144 7.63257 3.93581 8.50997 4.6064L11.5633 6.94002ZM10.7536 7.99938L7.70031 5.66575L7.70031 10.333L10.7536 7.99938Z" fill="#424551"/>
<path fill-rule="evenodd" clip-rule="evenodd" d="M8.8514 1.99935C5.53769 1.99935 2.8514 4.68564 2.8514 7.99935C2.8514 11.3131 5.53769 13.9993 8.8514 13.9993C12.1651 13.9993 14.8514 11.3131 14.8514 7.99935C14.8514 4.68564 12.1651 1.99935 8.8514 1.99935ZM1.51807 7.99935C1.51807 3.94926 4.80131 0.666016 8.8514 0.666016C12.9015 0.666016 16.1847 3.94926 16.1847 7.99935C16.1847 12.0494 12.9015 15.3327 8.8514 15.3327C4.80131 15.3327 1.51807 12.0494 1.51807 7.99935Z" fill="#424551"/>
</g>
<defs>
<clipPath id="clip0_2606_438">
<rect width="15" height="15" fill="white" transform="translate(0.851562)"/>
</clipPath>
</defs>
</svg>
