<svg width="16" height="16" viewBox="0 0 16 16" fill="none" xmlns="http://www.w3.org/2000/svg">
<path fill-rule="evenodd" clip-rule="evenodd" d="M4.20365 4.26706C4.20365 2.13156 5.93481 0.400391 8.07031 0.400391C10.2058 0.400391 11.937 2.13156 11.937 4.26706V7.46706C11.937 9.60256 10.2058 11.3337 8.07031 11.3337C5.93481 11.3337 4.20365 9.60256 4.20365 7.46706V4.26706ZM8.07031 1.73372C6.67119 1.73372 5.53698 2.86794 5.53698 4.26706V7.46706C5.53698 8.86618 6.67119 10.0004 8.07031 10.0004C9.46943 10.0004 10.6036 8.86618 10.6036 7.46706V4.26706C10.6036 2.86794 9.46943 1.73372 8.07031 1.73372Z" fill="#424551"/>
<path fill-rule="evenodd" clip-rule="evenodd" d="M2.73698 5.73372C3.10517 5.73372 3.40365 6.0322 3.40365 6.40039V7.46706C3.40365 10.0444 5.49298 12.1337 8.07031 12.1337C10.6476 12.1337 12.737 10.0444 12.737 7.46706V6.40039C12.737 6.0322 13.0355 5.73372 13.4036 5.73372C13.7718 5.73372 14.0703 6.0322 14.0703 6.40039V7.46706C14.0703 10.7808 11.384 13.4671 8.07031 13.4671C4.7566 13.4671 2.07031 10.7808 2.07031 7.46706V6.40039C2.07031 6.0322 2.36879 5.73372 2.73698 5.73372Z" fill="#424551"/>
<path fill-rule="evenodd" clip-rule="evenodd" d="M8.07031 12.6671C8.4385 12.6671 8.73698 12.9655 8.73698 13.3337V14.2671H10.2036C10.5718 14.2671 10.8703 14.5655 10.8703 14.9337C10.8703 15.3019 10.5718 15.6004 10.2036 15.6004H5.93698C5.56879 15.6004 5.27031 15.3019 5.27031 14.9337C5.27031 14.5655 5.56879 14.2671 5.93698 14.2671H7.40365V13.3337C7.40365 12.9655 7.70212 12.6671 8.07031 12.6671Z" fill="#424551"/>
</svg>
