<svg width="13" height="16" viewBox="0 0 13 16" fill="none" xmlns="http://www.w3.org/2000/svg">
<path fill-rule="evenodd" clip-rule="evenodd" d="M3.96631 9.00065C3.96631 8.63246 4.26479 8.33398 4.63298 8.33398H8.63298C9.00117 8.33398 9.29964 8.63246 9.29964 9.00065C9.29964 9.36884 9.00117 9.66732 8.63298 9.66732H4.63298C4.26479 9.66732 3.96631 9.36884 3.96631 9.00065Z" fill="#424551"/>
<path fill-rule="evenodd" clip-rule="evenodd" d="M3.96631 11.5007C3.96631 11.1325 4.26479 10.834 4.63298 10.834H6.63298C7.00117 10.834 7.29964 11.1325 7.29964 11.5007C7.29964 11.8688 7.00117 12.1673 6.63298 12.1673H4.63298C4.26479 12.1673 3.96631 11.8688 3.96631 11.5007Z" fill="#424551"/>
<path fill-rule="evenodd" clip-rule="evenodd" d="M4.66159 1.02925C4.78661 0.904222 4.95618 0.833984 5.13299 0.833984H9.63299C11.1058 0.833984 12.2997 2.02789 12.2997 3.50065L12.2997 12.5007C12.2997 13.9734 11.1058 15.1673 9.633 15.1673H3.63298C2.16021 15.1673 0.966305 13.9734 0.966309 12.5006L0.966325 5.00065C0.966326 4.82384 1.03656 4.65427 1.16159 4.52925L4.66159 1.02925ZM4.9663 2.61015V4.83398H2.74247L4.9663 2.61015ZM2.29966 6.16732L2.29964 12.5006C2.29964 13.237 2.89659 13.834 3.63298 13.834H9.633C10.3694 13.834 10.9663 13.237 10.9663 12.5007L10.9663 3.50065C10.9663 2.76427 10.3694 2.16732 9.63299 2.16732H6.29964V5.50065C6.29964 5.86884 6.00116 6.16732 5.63297 6.16732H2.29966Z" fill="#424551"/>
</svg>
