<svg width="1990" height="1080" viewBox="0 0 1990 1080" fill="none" xmlns="http://www.w3.org/2000/svg">
<g opacity="0.2" clip-path="url(#clip0_2554_481)">
<path d="M30.0975 896C-48.4557 896 -112 959.544 -112 1038.1C-112 1116.46 -48.4557 1180.19 30.0975 1180.19C108.456 1180.19 172.195 1116.65 172.195 1038.1C172 959.544 108.456 896 30.0975 896ZM30.0975 1171.03C-43.3878 1171.03 -102.839 1111.58 -102.839 1038.1C-102.839 964.612 -43.3878 905.161 30.0975 905.161C103.583 905.161 163.034 964.612 163.034 1038.1C163.034 1111.39 103.388 1171.03 30.0975 1171.03Z" fill="white"/>
<path d="M30.0988 926.603C-31.3014 926.603 -81.2012 976.502 -81.2012 1037.9C-81.2012 1099.3 -31.3014 1149.2 30.0988 1149.2C91.4989 1149.2 141.399 1099.5 141.399 1038.1C141.399 976.502 91.4989 926.603 30.0988 926.603ZM30.0988 1132.24C-21.9452 1132.24 -64.243 1089.95 -64.243 1037.9C-64.243 985.859 -21.9452 943.561 30.0988 943.561C82.1427 943.561 124.441 985.859 124.441 1037.9C124.441 1089.95 82.1427 1132.24 30.0988 1132.24Z" fill="white"/>
<path d="M30.098 975.527C-4.40304 975.527 -32.4717 1003.6 -32.4717 1038.1C-32.4717 1072.6 -4.59796 1100.67 30.098 1100.67C64.599 1100.67 92.6677 1072.6 92.6677 1038.1C92.4727 1003.6 64.599 975.527 30.098 975.527ZM30.098 1071.62C11.5805 1071.62 -3.42843 1056.61 -3.42843 1038.1C-3.42843 1019.58 11.5805 1004.57 30.098 1004.57C48.6155 1004.57 63.6244 1019.58 63.6244 1038.1C63.6244 1056.61 48.6155 1071.62 30.098 1071.62Z" fill="white"/>
</g>
<g opacity="0.8" clip-path="url(#clip1_2554_481)">
<path d="M1838.34 789.264C1838.34 790.784 1837.19 791.923 1835.67 791.923C1834.14 791.923 1833 790.784 1833 789.264C1833 787.745 1834.14 786.605 1835.67 786.605C1837.19 786.605 1838.34 787.872 1838.34 789.264Z" fill="white"/>
<path d="M1861.08 789.264C1861.08 790.784 1859.93 791.923 1858.41 791.923C1856.88 791.923 1855.74 790.784 1855.74 789.264C1855.74 787.745 1856.88 786.605 1858.41 786.605C1859.8 786.605 1861.08 787.872 1861.08 789.264Z" fill="white"/>
<path d="M1883.69 789.264C1883.69 790.784 1882.54 791.923 1881.02 791.923C1879.5 791.923 1878.35 790.784 1878.35 789.264C1878.35 787.745 1879.5 786.605 1881.02 786.605C1882.54 786.605 1883.69 787.872 1883.69 789.264Z" fill="white"/>
<path d="M1906.43 789.264C1906.43 790.784 1905.28 791.923 1903.76 791.923C1902.24 791.923 1901.09 790.784 1901.09 789.264C1901.09 787.745 1902.24 786.605 1903.76 786.605C1905.28 786.605 1906.43 787.872 1906.43 789.264Z" fill="white"/>
<path d="M1929.17 789.264C1929.17 790.784 1928.02 791.923 1926.5 791.923C1924.98 791.923 1923.83 790.784 1923.83 789.264C1923.83 787.745 1924.98 786.605 1926.5 786.605C1927.9 786.605 1929.17 787.872 1929.17 789.264Z" fill="white"/>
<path d="M1951.91 789.264C1951.91 790.784 1950.76 791.923 1949.24 791.923C1947.72 791.923 1946.57 790.784 1946.57 789.264C1946.57 787.745 1947.72 786.605 1949.24 786.605C1950.76 786.605 1951.91 787.872 1951.91 789.264Z" fill="white"/>
<path d="M1974.52 789.264C1974.52 790.784 1973.38 791.923 1971.85 791.923C1970.33 791.923 1969.18 790.784 1969.18 789.264C1969.18 787.745 1970.33 786.605 1971.85 786.605C1973.38 786.605 1974.52 787.872 1974.52 789.264Z" fill="white"/>
<path d="M1838.34 808.131C1838.34 809.65 1837.19 810.79 1835.67 810.79C1834.14 810.79 1833 809.65 1833 808.131C1833 806.611 1834.14 805.472 1835.67 805.472C1837.19 805.472 1838.34 806.611 1838.34 808.131Z" fill="white"/>
<path d="M1861.08 808.131C1861.08 809.65 1859.93 810.79 1858.41 810.79C1856.88 810.79 1855.74 809.65 1855.74 808.131C1855.74 806.611 1856.88 805.472 1858.41 805.472C1859.8 805.472 1861.08 806.611 1861.08 808.131Z" fill="white"/>
<path d="M1883.69 808.131C1883.69 809.65 1882.54 810.79 1881.02 810.79C1879.5 810.79 1878.35 809.65 1878.35 808.131C1878.35 806.611 1879.5 805.472 1881.02 805.472C1882.54 805.472 1883.69 806.611 1883.69 808.131Z" fill="white"/>
<path d="M1906.43 808.131C1906.43 809.65 1905.28 810.79 1903.76 810.79C1902.24 810.79 1901.09 809.65 1901.09 808.131C1901.09 806.611 1902.24 805.472 1903.76 805.472C1905.28 805.472 1906.43 806.611 1906.43 808.131Z" fill="white"/>
<path d="M1929.17 808.131C1929.17 809.65 1928.02 810.79 1926.5 810.79C1924.98 810.79 1923.83 809.65 1923.83 808.131C1923.83 806.611 1924.98 805.472 1926.5 805.472C1927.9 805.472 1929.17 806.611 1929.17 808.131Z" fill="white"/>
<path d="M1951.91 808.131C1951.91 809.65 1950.76 810.79 1949.24 810.79C1947.72 810.79 1946.57 809.65 1946.57 808.131C1946.57 806.611 1947.72 805.472 1949.24 805.472C1950.76 805.472 1951.91 806.611 1951.91 808.131Z" fill="white"/>
<path d="M1974.52 808.131C1974.52 809.65 1973.38 810.79 1971.85 810.79C1970.33 810.79 1969.18 809.65 1969.18 808.131C1969.18 806.611 1970.33 805.472 1971.85 805.472C1973.38 805.472 1974.52 806.611 1974.52 808.131Z" fill="white"/>
<path d="M1838.34 751.659C1838.34 753.178 1837.19 754.318 1835.67 754.318C1834.14 754.318 1833 753.178 1833 751.659C1833 750.14 1834.14 749 1835.67 749C1837.19 749 1838.34 750.14 1838.34 751.659Z" fill="white"/>
<path d="M1861.08 751.659C1861.08 753.178 1859.93 754.318 1858.41 754.318C1856.88 754.318 1855.74 753.178 1855.74 751.659C1855.74 750.14 1856.88 749 1858.41 749C1859.8 749 1861.08 750.14 1861.08 751.659Z" fill="white"/>
<path d="M1883.69 751.659C1883.69 753.178 1882.54 754.318 1881.02 754.318C1879.5 754.318 1878.35 753.178 1878.35 751.659C1878.35 750.14 1879.62 749 1881.02 749C1882.54 749 1883.69 750.14 1883.69 751.659Z" fill="white"/>
<path d="M1906.43 751.659C1906.43 753.178 1905.28 754.318 1903.76 754.318C1902.24 754.318 1901.09 753.178 1901.09 751.659C1901.09 750.14 1902.36 749 1903.76 749C1905.16 749 1906.43 750.14 1906.43 751.659Z" fill="white"/>
<path d="M1929.17 751.659C1929.17 753.178 1928.02 754.318 1926.5 754.318C1924.98 754.318 1923.83 753.178 1923.83 751.659C1923.83 750.14 1924.98 749 1926.5 749C1927.9 749 1929.17 750.14 1929.17 751.659Z" fill="white"/>
<path d="M1951.91 751.659C1951.91 753.178 1950.76 754.318 1949.24 754.318C1947.72 754.318 1946.57 753.178 1946.57 751.659C1946.57 750.14 1947.72 749 1949.24 749C1950.76 749 1951.91 750.14 1951.91 751.659Z" fill="white"/>
<path d="M1974.52 751.659C1974.52 753.178 1973.38 754.318 1971.85 754.318C1970.33 754.318 1969.18 753.178 1969.18 751.659C1969.18 750.14 1970.33 749 1971.85 749C1973.38 749 1974.52 750.14 1974.52 751.659Z" fill="white"/>
<path d="M1838.34 770.525C1838.34 772.045 1837.19 773.184 1835.67 773.184C1834.14 773.184 1833 771.918 1833 770.525C1833 769.006 1834.14 767.866 1835.67 767.866C1837.19 767.866 1838.34 769.006 1838.34 770.525Z" fill="white"/>
<path d="M1861.08 770.525C1861.08 772.045 1859.93 773.184 1858.41 773.184C1856.88 773.184 1855.74 772.045 1855.74 770.525C1855.74 769.006 1856.88 767.866 1858.41 767.866C1859.8 767.866 1861.08 769.006 1861.08 770.525Z" fill="white"/>
<path d="M1883.69 770.525C1883.69 772.045 1882.54 773.184 1881.02 773.184C1879.5 773.184 1878.35 772.045 1878.35 770.525C1878.35 769.006 1879.5 767.866 1881.02 767.866C1882.54 767.866 1883.69 769.006 1883.69 770.525Z" fill="white"/>
<path d="M1906.43 770.525C1906.43 772.045 1905.28 773.184 1903.76 773.184C1902.24 773.184 1901.09 772.045 1901.09 770.525C1901.09 769.006 1902.24 767.866 1903.76 767.866C1905.28 767.866 1906.43 769.006 1906.43 770.525Z" fill="white"/>
<path d="M1929.17 770.525C1929.17 772.045 1928.02 773.184 1926.5 773.184C1924.98 773.184 1923.83 772.045 1923.83 770.525C1923.83 769.006 1924.98 767.866 1926.5 767.866C1927.9 767.866 1929.17 769.006 1929.17 770.525Z" fill="white"/>
<path d="M1951.91 770.525C1951.91 772.045 1950.76 773.184 1949.24 773.184C1947.72 773.184 1946.57 772.045 1946.57 770.525C1946.57 769.006 1947.72 767.866 1949.24 767.866C1950.76 767.866 1951.91 769.006 1951.91 770.525Z" fill="white"/>
<path d="M1974.52 770.525C1974.52 772.045 1973.38 773.184 1971.85 773.184C1970.33 773.184 1969.18 772.045 1969.18 770.525C1969.18 769.006 1970.33 767.866 1971.85 767.866C1973.38 767.866 1974.52 769.006 1974.52 770.525Z" fill="white"/>
<path d="M1838.34 826.87C1838.34 828.389 1837.19 829.529 1835.67 829.529C1834.14 829.529 1833 828.389 1833 826.87C1833 825.35 1834.14 824.211 1835.67 824.211C1837.19 824.211 1838.34 825.477 1838.34 826.87Z" fill="white"/>
<path d="M1861.08 826.87C1861.08 828.389 1859.93 829.529 1858.41 829.529C1856.88 829.529 1855.74 828.389 1855.74 826.87C1855.74 825.35 1856.88 824.211 1858.41 824.211C1859.8 824.211 1861.08 825.477 1861.08 826.87Z" fill="white"/>
<path d="M1883.69 826.87C1883.69 828.389 1882.54 829.529 1881.02 829.529C1879.5 829.529 1878.35 828.389 1878.35 826.87C1878.35 825.35 1879.5 824.211 1881.02 824.211C1882.54 824.211 1883.69 825.477 1883.69 826.87Z" fill="white"/>
<path d="M1906.43 826.87C1906.43 828.389 1905.28 829.529 1903.76 829.529C1902.24 829.529 1901.09 828.389 1901.09 826.87C1901.09 825.35 1902.24 824.211 1903.76 824.211C1905.28 824.211 1906.43 825.477 1906.43 826.87Z" fill="white"/>
<path d="M1929.17 826.87C1929.17 828.389 1928.02 829.529 1926.5 829.529C1924.98 829.529 1923.83 828.389 1923.83 826.87C1923.83 825.35 1924.98 824.211 1926.5 824.211C1927.9 824.211 1929.17 825.477 1929.17 826.87Z" fill="white"/>
<path d="M1951.91 826.87C1951.91 828.389 1950.76 829.529 1949.24 829.529C1947.72 829.529 1946.57 828.389 1946.57 826.87C1946.57 825.35 1947.72 824.211 1949.24 824.211C1950.76 824.211 1951.91 825.477 1951.91 826.87Z" fill="white"/>
<path d="M1974.52 826.87C1974.52 828.389 1973.38 829.529 1971.85 829.529C1970.33 829.529 1969.18 828.389 1969.18 826.87C1969.18 825.35 1970.33 824.211 1971.85 824.211C1973.38 824.211 1974.52 825.477 1974.52 826.87Z" fill="white"/>
<path d="M1838.34 845.736C1838.34 847.256 1837.19 848.395 1835.67 848.395C1834.14 848.395 1833 847.256 1833 845.736C1833 844.217 1834.14 843.077 1835.67 843.077C1837.19 843.077 1838.34 844.217 1838.34 845.736Z" fill="white"/>
<path d="M1861.08 845.736C1861.08 847.256 1859.93 848.395 1858.41 848.395C1856.88 848.395 1855.74 847.256 1855.74 845.736C1855.74 844.217 1856.88 843.077 1858.41 843.077C1859.8 843.077 1861.08 844.217 1861.08 845.736Z" fill="white"/>
<path d="M1883.69 845.736C1883.69 847.256 1882.54 848.395 1881.02 848.395C1879.5 848.395 1878.35 847.256 1878.35 845.736C1878.35 844.217 1879.5 843.077 1881.02 843.077C1882.54 843.077 1883.69 844.217 1883.69 845.736Z" fill="white"/>
<path d="M1903.76 848.395C1905.23 848.395 1906.43 847.205 1906.43 845.736C1906.43 844.268 1905.23 843.077 1903.76 843.077C1902.29 843.077 1901.09 844.268 1901.09 845.736C1901.09 847.205 1902.29 848.395 1903.76 848.395Z" fill="white"/>
<path d="M1929.17 845.736C1929.17 847.256 1928.02 848.395 1926.5 848.395C1924.98 848.395 1923.83 847.256 1923.83 845.736C1923.83 844.217 1924.98 843.077 1926.5 843.077C1927.9 843.077 1929.17 844.217 1929.17 845.736Z" fill="white"/>
<path d="M1951.91 845.736C1951.91 847.256 1950.76 848.395 1949.24 848.395C1947.72 848.395 1946.57 847.256 1946.57 845.736C1946.57 844.217 1947.72 843.077 1949.24 843.077C1950.76 843.077 1951.91 844.217 1951.91 845.736Z" fill="white"/>
<path d="M1974.52 845.736C1974.52 847.256 1973.38 848.395 1971.85 848.395C1970.33 848.395 1969.18 847.256 1969.18 845.736C1969.18 844.217 1970.33 843.077 1971.85 843.077C1973.38 843.077 1974.52 844.217 1974.52 845.736Z" fill="white"/>
<path d="M1838.34 864.601C1838.34 866.121 1837.19 867.26 1835.67 867.26C1834.14 867.26 1833 866.121 1833 864.601C1833 863.082 1834.14 861.942 1835.67 861.942C1837.19 861.942 1838.34 863.082 1838.34 864.601Z" fill="white"/>
<path d="M1861.08 864.601C1861.08 866.121 1859.93 867.26 1858.41 867.26C1856.88 867.26 1855.74 866.121 1855.74 864.601C1855.74 863.082 1856.88 861.942 1858.41 861.942C1859.8 861.942 1861.08 863.082 1861.08 864.601Z" fill="white"/>
<path d="M1883.69 864.601C1883.69 866.121 1882.54 867.26 1881.02 867.26C1879.5 867.26 1878.35 866.121 1878.35 864.601C1878.35 863.082 1879.5 861.942 1881.02 861.942C1882.54 861.942 1883.69 863.082 1883.69 864.601Z" fill="white"/>
<path d="M1906.43 864.601C1906.43 866.121 1905.28 867.26 1903.76 867.26C1902.24 867.26 1901.09 866.121 1901.09 864.601C1901.09 863.082 1902.24 861.942 1903.76 861.942C1905.28 861.942 1906.43 863.082 1906.43 864.601Z" fill="white"/>
<path d="M1929.17 864.601C1929.17 866.121 1928.02 867.26 1926.5 867.26C1924.98 867.26 1923.83 866.121 1923.83 864.601C1923.83 863.082 1924.98 861.942 1926.5 861.942C1927.9 861.942 1929.17 863.082 1929.17 864.601Z" fill="white"/>
<path d="M1951.91 864.601C1951.91 866.121 1950.76 867.26 1949.24 867.26C1947.72 867.26 1946.57 866.121 1946.57 864.601C1946.57 863.082 1947.72 861.942 1949.24 861.942C1950.76 861.942 1951.91 863.082 1951.91 864.601Z" fill="white"/>
<path d="M1974.52 864.601C1974.52 866.121 1973.38 867.26 1971.85 867.26C1970.33 867.26 1969.18 866.121 1969.18 864.601C1969.18 863.082 1970.33 861.942 1971.85 861.942C1973.38 861.942 1974.52 863.082 1974.52 864.601Z" fill="white"/>
<path d="M1838.34 883.341C1838.34 884.86 1837.19 886 1835.67 886C1834.14 886 1833 884.86 1833 883.341C1833 881.821 1834.14 880.682 1835.67 880.682C1837.19 880.682 1838.34 881.948 1838.34 883.341Z" fill="white"/>
<path d="M1861.08 883.341C1861.08 884.86 1859.93 886 1858.41 886C1856.88 886 1855.74 884.86 1855.74 883.341C1855.74 881.821 1856.88 880.682 1858.41 880.682C1859.8 880.682 1861.08 881.948 1861.08 883.341Z" fill="white"/>
<path d="M1883.69 883.341C1883.69 884.86 1882.54 886 1881.02 886C1879.5 886 1878.35 884.86 1878.35 883.341C1878.35 881.821 1879.5 880.682 1881.02 880.682C1882.54 880.682 1883.69 881.948 1883.69 883.341Z" fill="white"/>
<path d="M1906.43 883.341C1906.43 884.86 1905.28 886 1903.76 886C1902.24 886 1901.09 884.86 1901.09 883.341C1901.09 881.821 1902.24 880.682 1903.76 880.682C1905.28 880.682 1906.43 881.948 1906.43 883.341Z" fill="white"/>
<path d="M1929.17 883.341C1929.17 884.86 1928.02 886 1926.5 886C1924.98 886 1923.83 884.86 1923.83 883.341C1923.83 881.821 1924.98 880.682 1926.5 880.682C1927.9 880.682 1929.17 881.948 1929.17 883.341Z" fill="white"/>
<path d="M1951.91 883.341C1951.91 884.86 1950.76 886 1949.24 886C1947.72 886 1946.57 884.86 1946.57 883.341C1946.57 881.821 1947.72 880.682 1949.24 880.682C1950.76 880.682 1951.91 881.948 1951.91 883.341Z" fill="white"/>
<path d="M1974.52 883.341C1974.52 884.86 1973.38 886 1971.85 886C1970.33 886 1969.18 884.86 1969.18 883.341C1969.18 881.821 1970.33 880.682 1971.85 880.682C1973.38 880.682 1974.52 881.948 1974.52 883.341Z" fill="white"/>
</g>
<g opacity="0.3">
<path d="M1831.81 75.2212L1841.47 84.8799L1815.78 110.563L1790.1 84.8799L1799.68 75.2943L1815.71 91.319L1831.81 75.2212Z" fill="white"/>
<path d="M1831.81 40.5386L1841.39 50.1241L1815.71 75.8075L1790.1 50.1973L1799.76 40.5386L1815.78 56.5632L1831.81 40.5386Z" fill="white"/>
<path d="M1831.73 5.78165L1841.39 15.4404L1815.78 41.0506L1790.1 15.3672L1799.68 5.78165L1815.71 21.8063L1831.73 5.78165Z" fill="white"/>
<path d="M1831.81 -28.9761L1841.46 -19.3174L1815.78 6.36602L1790.1 -19.3174L1799.76 -28.9761L1815.78 -12.9514L1831.81 -28.9761Z" fill="white"/>
</g>
<path opacity="0.3" d="M794 808.553C780.071 822.482 757.377 822.482 743.447 808.553C729.518 794.623 729.518 771.929 743.447 758L794 808.553Z" fill="white"/>
<g opacity="0.3">
<path d="M848.486 529.89C859.205 529.89 867.937 521.165 867.937 510.453C867.937 499.742 859.205 491.017 848.486 491.017L848.486 529.89Z" fill="white"/>
<path d="M818.141 529.89C828.861 529.89 837.592 521.165 837.592 510.453C837.592 499.742 828.861 491.017 818.141 491.017L818.141 529.89Z" fill="white"/>
<path d="M787.796 529.89C798.515 529.89 807.247 521.165 807.247 510.453C807.247 499.742 798.515 491.017 787.796 491.017L787.796 529.89Z" fill="white"/>
</g>
<g opacity="0.3">
<path d="M146.301 144.921L146.301 133L178 133L178 164.699L166.169 164.699L166.169 144.921L146.301 144.921Z" fill="white"/>
<path d="M124.898 166.325L124.898 154.494L156.597 154.494L156.597 186.103L144.676 186.103L144.676 166.325L124.898 166.325Z" fill="white"/>
<path d="M103.495 187.819L103.495 175.898L135.103 175.898L135.103 207.597L123.272 207.597L123.272 187.819L103.495 187.819Z" fill="white"/>
<path d="M82.0005 209.222L82.0005 197.301L113.699 197.301L113.699 229L101.778 229L101.778 209.222L82.0005 209.222Z" fill="white"/>
</g>
<defs>
<clipPath id="clip0_2554_481">
<rect width="284" height="284" fill="white" transform="translate(-112 896)"/>
</clipPath>
<clipPath id="clip1_2554_481">
<rect width="187" height="137" fill="white" transform="translate(1833 749)"/>
</clipPath>
</defs>
</svg>
