<svg width="16" height="16" viewBox="0 0 16 16" fill="none" xmlns="http://www.w3.org/2000/svg">
<path d="M8.51807 4.33268C8.51807 3.96449 8.21959 3.66602 7.8514 3.66602C7.48321 3.66602 7.18473 3.96449 7.18473 4.33268V7.99935C7.18473 8.17616 7.25497 8.34573 7.37999 8.47075L9.37999 10.4708C9.64034 10.7311 10.0625 10.7311 10.3228 10.4708C10.5832 10.2104 10.5832 9.78829 10.3228 9.52794L8.51807 7.72321V4.33268Z" fill="#787A80"/>
<path fill-rule="evenodd" clip-rule="evenodd" d="M7.8514 0.666016C3.80131 0.666016 0.518066 3.94926 0.518066 7.99935C0.518066 12.0494 3.80131 15.3327 7.8514 15.3327C11.9015 15.3327 15.1847 12.0494 15.1847 7.99935C15.1847 3.94926 11.9015 0.666016 7.8514 0.666016ZM1.8514 7.99935C1.8514 4.68564 4.53769 1.99935 7.8514 1.99935C11.1651 1.99935 13.8514 4.68564 13.8514 7.99935C13.8514 11.3131 11.1651 13.9993 7.8514 13.9993C4.53769 13.9993 1.8514 11.3131 1.8514 7.99935Z" fill="#787A80"/>
</svg>
