<svg width="157" height="26" viewBox="0 0 157 26" fill="none" xmlns="http://www.w3.org/2000/svg">
<g opacity="0.6">
<path fill-rule="evenodd" clip-rule="evenodd" d="M15.1668 16.9993V9.66602C15.1668 8.56145 14.2714 7.66602 13.1668 7.66602L2.83349 7.66603C1.72893 7.66603 0.833496 8.56146 0.833496 9.66603V16.9993C0.833496 18.1039 1.72893 18.9993 2.8335 18.9993L13.1668 18.9993C14.2714 18.9993 15.1668 18.1039 15.1668 16.9993ZM13.8335 11.1723V16.9993C13.8335 17.3675 13.535 17.666 13.1668 17.666L2.8335 17.666C2.46531 17.666 2.16683 17.3675 2.16683 16.9993L2.16683 11.1722L6.87561 14.3742C7.55433 14.8357 8.44613 14.8357 9.12485 14.3742L13.8335 11.1723ZM13.8259 9.56509C13.7773 9.24479 13.5007 8.99935 13.1668 8.99935L2.83349 8.99936C2.49965 8.99936 2.22311 9.24476 2.17443 9.56501L7.62535 13.2716C7.85159 13.4255 8.14886 13.4255 8.3751 13.2716L13.8259 9.56509Z" fill="white"/>
<path d="M26.56 11.976C26.9067 11.608 27.2907 11.3147 27.712 11.096C28.1333 10.8773 28.6187 10.768 29.168 10.768C29.6107 10.768 30 10.8427 30.336 10.992C30.6773 11.136 30.96 11.344 31.184 11.616C31.4133 11.8827 31.5867 12.2053 31.704 12.584C31.8213 12.9627 31.88 13.3813 31.88 13.84V19H30.448V13.84C30.448 13.2267 30.3067 12.752 30.024 12.416C29.7467 12.0747 29.3227 11.904 28.752 11.904C28.3307 11.904 27.936 12.0053 27.568 12.208C27.2053 12.4107 26.8693 12.6853 26.56 13.032V19H25.128V7.216H26.56V11.976ZM39.4739 14.064C39.4739 13.7333 39.4259 13.432 39.3299 13.16C39.2392 12.8827 39.1032 12.6453 38.9219 12.448C38.7459 12.2453 38.5299 12.0907 38.2739 11.984C38.0179 11.872 37.7272 11.816 37.4019 11.816C36.7192 11.816 36.1779 12.016 35.7779 12.416C35.3832 12.8107 35.1379 13.36 35.0419 14.064H39.4739ZM40.6259 17.864C40.4499 18.0773 40.2392 18.264 39.9939 18.424C39.7485 18.5787 39.4845 18.7067 39.2019 18.808C38.9245 18.9093 38.6365 18.984 38.3379 19.032C38.0392 19.0853 37.7432 19.112 37.4499 19.112C36.8899 19.112 36.3725 19.0187 35.8979 18.832C35.4285 18.64 35.0205 18.3627 34.6739 18C34.3325 17.632 34.0659 17.1787 33.8739 16.64C33.6819 16.1013 33.5859 15.4827 33.5859 14.784C33.5859 14.2187 33.6712 13.6907 33.8419 13.2C34.0179 12.7093 34.2685 12.2853 34.5939 11.928C34.9192 11.5653 35.3165 11.2827 35.7859 11.08C36.2552 10.872 36.7832 10.768 37.3699 10.768C37.8552 10.768 38.3032 10.8507 38.7139 11.016C39.1299 11.176 39.4872 11.4107 39.7859 11.72C40.0899 12.024 40.3272 12.4027 40.4979 12.856C40.6685 13.304 40.7539 13.816 40.7539 14.392C40.7539 14.616 40.7299 14.7653 40.6819 14.84C40.6339 14.9147 40.5432 14.952 40.4099 14.952H34.9939C35.0099 15.464 35.0792 15.9093 35.2019 16.288C35.3299 16.6667 35.5059 16.984 35.7299 17.24C35.9539 17.4907 36.2205 17.68 36.5299 17.808C36.8392 17.9307 37.1859 17.992 37.5699 17.992C37.9272 17.992 38.2339 17.952 38.4899 17.872C38.7512 17.7867 38.9752 17.696 39.1619 17.6C39.3485 17.504 39.5032 17.416 39.6259 17.336C39.7539 17.2507 39.8632 17.208 39.9539 17.208C40.0712 17.208 40.1619 17.2533 40.2259 17.344L40.6259 17.864ZM43.975 7.216V19H42.551V7.216H43.975ZM47.7563 7.216V19H46.3322V7.216H47.7563ZM53.4815 10.768C54.0735 10.768 54.6068 10.8667 55.0815 11.064C55.5562 11.2613 55.9615 11.5413 56.2975 11.904C56.6335 12.2667 56.8895 12.7067 57.0655 13.224C57.2468 13.736 57.3375 14.3093 57.3375 14.944C57.3375 15.584 57.2468 16.16 57.0655 16.672C56.8895 17.184 56.6335 17.6213 56.2975 17.984C55.9615 18.3467 55.5562 18.6267 55.0815 18.824C54.6068 19.016 54.0735 19.112 53.4815 19.112C52.8842 19.112 52.3455 19.016 51.8655 18.824C51.3908 18.6267 50.9855 18.3467 50.6495 17.984C50.3135 17.6213 50.0548 17.184 49.8735 16.672C49.6975 16.16 49.6095 15.584 49.6095 14.944C49.6095 14.3093 49.6975 13.736 49.8735 13.224C50.0548 12.7067 50.3135 12.2667 50.6495 11.904C50.9855 11.5413 51.3908 11.2613 51.8655 11.064C52.3455 10.8667 52.8842 10.768 53.4815 10.768ZM53.4815 18C54.2815 18 54.8788 17.7333 55.2735 17.2C55.6682 16.6613 55.8655 15.912 55.8655 14.952C55.8655 13.9867 55.6682 13.2347 55.2735 12.696C54.8788 12.1573 54.2815 11.888 53.4815 11.888C53.0762 11.888 52.7215 11.9573 52.4175 12.096C52.1188 12.2347 51.8682 12.4347 51.6655 12.696C51.4682 12.9573 51.3188 13.28 51.2175 13.664C51.1215 14.0427 51.0735 14.472 51.0735 14.952C51.0735 15.912 51.2708 16.6613 51.6655 17.2C52.0655 17.7333 52.6708 18 53.4815 18ZM66.4556 12.424C66.2476 12.376 66.0183 12.352 65.7676 12.352C65.3676 12.352 64.9996 12.4373 64.6636 12.608C64.333 12.7733 64.0476 12.992 63.8076 13.264C63.5676 13.536 63.3783 13.848 63.2396 14.2C63.1063 14.552 63.0396 14.912 63.0396 15.28C63.0396 15.664 63.1276 15.9733 63.3036 16.208C63.4796 16.4373 63.741 16.552 64.0876 16.552C64.253 16.552 64.4183 16.5253 64.5836 16.472C64.7543 16.4187 64.917 16.3253 65.0716 16.192C65.2316 16.0587 65.3783 15.8773 65.5116 15.648C65.645 15.4187 65.757 15.1307 65.8476 14.784L66.4556 12.424ZM66.9516 14.656C66.845 15.0613 66.7943 15.392 66.7996 15.648C66.805 15.8987 66.845 16.096 66.9196 16.24C66.9996 16.384 67.109 16.4827 67.2476 16.536C67.3863 16.584 67.5383 16.608 67.7036 16.608C67.965 16.608 68.213 16.5333 68.4476 16.384C68.6823 16.2347 68.8876 16.024 69.0636 15.752C69.245 15.48 69.3863 15.1547 69.4876 14.776C69.5943 14.392 69.6476 13.968 69.6476 13.504C69.6476 12.768 69.5303 12.1227 69.2956 11.568C69.061 11.0133 68.7356 10.552 68.3196 10.184C67.909 9.81067 67.421 9.53333 66.8556 9.352C66.2956 9.16533 65.6903 9.072 65.0396 9.072C64.325 9.072 63.6556 9.208 63.0316 9.48C62.4076 9.752 61.8636 10.128 61.3996 10.608C60.9356 11.088 60.5676 11.656 60.2956 12.312C60.029 12.968 59.8956 13.6827 59.8956 14.456C59.8956 15.3627 60.037 16.16 60.3196 16.848C60.6076 17.5307 60.997 18.104 61.4876 18.568C61.9836 19.032 62.565 19.3813 63.2316 19.616C63.8983 19.8507 64.613 19.968 65.3756 19.968C66.1863 19.968 66.901 19.88 67.5196 19.704C68.1436 19.528 68.6823 19.304 69.1356 19.032C69.2423 18.968 69.3356 18.9493 69.4156 18.976C69.4956 18.9973 69.5543 19.056 69.5916 19.152L69.7996 19.68C69.2236 20.064 68.5703 20.3653 67.8396 20.584C67.1143 20.8027 66.293 20.912 65.3756 20.912C64.4476 20.912 63.5863 20.7653 62.7916 20.472C61.997 20.1787 61.3063 19.7547 60.7196 19.2C60.1383 18.6507 59.6796 17.976 59.3436 17.176C59.013 16.376 58.8476 15.4693 58.8476 14.456C58.8476 13.8747 58.9196 13.3147 59.0636 12.776C59.213 12.2373 59.421 11.736 59.6876 11.272C59.9543 10.8027 60.2743 10.376 60.6476 9.992C61.021 9.60267 61.437 9.272 61.8956 9C62.3543 8.72267 62.8476 8.50933 63.3756 8.36C63.909 8.20533 64.4636 8.128 65.0396 8.128C65.5303 8.128 66.0103 8.18133 66.4796 8.288C66.949 8.39467 67.3916 8.552 67.8076 8.76C68.229 8.968 68.613 9.22667 68.9596 9.536C69.3116 9.84 69.6156 10.192 69.8716 10.592C70.1276 10.9867 70.325 11.4293 70.4636 11.92C70.6076 12.4053 70.6796 12.9333 70.6796 13.504C70.6796 14.08 70.597 14.6133 70.4316 15.104C70.2716 15.5893 70.0476 16.0107 69.7596 16.368C69.477 16.7253 69.141 17.0053 68.7516 17.208C68.3623 17.4107 67.9436 17.512 67.4956 17.512C67.0903 17.512 66.7543 17.4133 66.4876 17.216C66.2263 17.0133 66.0583 16.7067 65.9836 16.296C65.6796 16.7227 65.3463 17.0293 64.9836 17.216C64.621 17.4027 64.229 17.496 63.8076 17.496C63.493 17.496 63.2156 17.4427 62.9756 17.336C62.741 17.224 62.5463 17.072 62.3916 16.88C62.237 16.6827 62.1196 16.4507 62.0396 16.184C61.965 15.9173 61.9276 15.6293 61.9276 15.32C61.9276 14.8667 62.013 14.4107 62.1836 13.952C62.3596 13.488 62.6183 13.072 62.9596 12.704C63.301 12.3307 63.725 12.0267 64.2316 11.792C64.7383 11.5573 65.325 11.44 65.9916 11.44C66.349 11.44 66.6636 11.4693 66.9356 11.528C67.2076 11.5813 67.4636 11.6613 67.7036 11.768L66.9516 14.656ZM78.1743 12.336C78.1316 12.3947 78.0889 12.44 78.0463 12.472C78.0036 12.504 77.9449 12.52 77.8703 12.52C77.7903 12.52 77.7023 12.488 77.6063 12.424C77.5103 12.3547 77.3903 12.28 77.2463 12.2C77.1076 12.12 76.9343 12.048 76.7263 11.984C76.5236 11.9147 76.2729 11.88 75.9743 11.88C75.5743 11.88 75.2223 11.952 74.9183 12.096C74.6143 12.2347 74.3583 12.4373 74.1503 12.704C73.9476 12.9707 73.7929 13.2933 73.6863 13.672C73.5849 14.0507 73.5343 14.4747 73.5343 14.944C73.5343 15.4347 73.5903 15.872 73.7023 16.256C73.8143 16.6347 73.9716 16.9547 74.1743 17.216C74.3823 17.472 74.6303 17.6693 74.9183 17.808C75.2116 17.9413 75.5396 18.008 75.9023 18.008C76.2489 18.008 76.5343 17.968 76.7583 17.888C76.9823 17.8027 77.1663 17.7093 77.3103 17.608C77.4596 17.5067 77.5823 17.416 77.6783 17.336C77.7796 17.2507 77.8783 17.208 77.9743 17.208C78.0916 17.208 78.1823 17.2533 78.2463 17.344L78.6463 17.864C78.4703 18.0827 78.2703 18.2693 78.0463 18.424C77.8223 18.5787 77.5796 18.7093 77.3183 18.816C77.0623 18.9173 76.7929 18.992 76.5103 19.04C76.2276 19.088 75.9396 19.112 75.6463 19.112C75.1396 19.112 74.6676 19.0187 74.2303 18.832C73.7983 18.6453 73.4223 18.376 73.1023 18.024C72.7823 17.6667 72.5316 17.2293 72.3503 16.712C72.1689 16.1947 72.0783 15.6053 72.0783 14.944C72.0783 14.3413 72.1609 13.784 72.3263 13.272C72.4969 12.76 72.7423 12.32 73.0623 11.952C73.3876 11.5787 73.7849 11.288 74.2543 11.08C74.7289 10.872 75.2729 10.768 75.8863 10.768C76.4569 10.768 76.9583 10.8613 77.3903 11.048C77.8276 11.2293 78.2143 11.488 78.5503 11.824L78.1743 12.336ZM81.5269 12.52C81.7829 11.9653 82.0975 11.5333 82.4709 11.224C82.8442 10.9093 83.3002 10.752 83.8389 10.752C84.0095 10.752 84.1722 10.7707 84.3269 10.808C84.4869 10.8453 84.6282 10.904 84.7509 10.984L84.6469 12.048C84.6149 12.1813 84.5349 12.248 84.4069 12.248C84.3322 12.248 84.2229 12.232 84.0789 12.2C83.9349 12.168 83.7722 12.152 83.5909 12.152C83.3349 12.152 83.1055 12.1893 82.9029 12.264C82.7055 12.3387 82.5269 12.4507 82.3669 12.6C82.2122 12.744 82.0709 12.9253 81.9429 13.144C81.8202 13.3573 81.7082 13.6027 81.6069 13.88V19H80.1749V10.896H80.9909C81.1455 10.896 81.2522 10.9253 81.3109 10.984C81.3695 11.0427 81.4095 11.144 81.4309 11.288L81.5269 12.52ZM91.0989 14.064C91.0989 13.7333 91.0509 13.432 90.9549 13.16C90.8642 12.8827 90.7282 12.6453 90.5469 12.448C90.3709 12.2453 90.1549 12.0907 89.8989 11.984C89.6429 11.872 89.3522 11.816 89.0269 11.816C88.3442 11.816 87.8029 12.016 87.4029 12.416C87.0082 12.8107 86.7629 13.36 86.6669 14.064H91.0989ZM92.2509 17.864C92.0749 18.0773 91.8642 18.264 91.6189 18.424C91.3735 18.5787 91.1095 18.7067 90.8269 18.808C90.5495 18.9093 90.2615 18.984 89.9629 19.032C89.6642 19.0853 89.3682 19.112 89.0749 19.112C88.5149 19.112 87.9975 19.0187 87.5229 18.832C87.0535 18.64 86.6455 18.3627 86.2989 18C85.9575 17.632 85.6909 17.1787 85.4989 16.64C85.3069 16.1013 85.2109 15.4827 85.2109 14.784C85.2109 14.2187 85.2962 13.6907 85.4669 13.2C85.6429 12.7093 85.8935 12.2853 86.2189 11.928C86.5442 11.5653 86.9415 11.2827 87.4109 11.08C87.8802 10.872 88.4082 10.768 88.9949 10.768C89.4802 10.768 89.9282 10.8507 90.3389 11.016C90.7549 11.176 91.1122 11.4107 91.4109 11.72C91.7149 12.024 91.9522 12.4027 92.1229 12.856C92.2935 13.304 92.3789 13.816 92.3789 14.392C92.3789 14.616 92.3549 14.7653 92.3069 14.84C92.2589 14.9147 92.1682 14.952 92.0349 14.952H86.6189C86.6349 15.464 86.7042 15.9093 86.8269 16.288C86.9549 16.6667 87.1309 16.984 87.3549 17.24C87.5789 17.4907 87.8455 17.68 88.1549 17.808C88.4642 17.9307 88.8109 17.992 89.1949 17.992C89.5522 17.992 89.8589 17.952 90.1149 17.872C90.3762 17.7867 90.6002 17.696 90.7869 17.6C90.9735 17.504 91.1282 17.416 91.2509 17.336C91.3789 17.2507 91.4882 17.208 91.5789 17.208C91.6962 17.208 91.7869 17.2533 91.8509 17.344L92.2509 17.864ZM98.52 15.352C97.864 15.3733 97.304 15.4267 96.84 15.512C96.3813 15.592 96.0053 15.6987 95.712 15.832C95.424 15.9653 95.2133 16.1227 95.08 16.304C94.952 16.4853 94.888 16.688 94.888 16.912C94.888 17.1253 94.9227 17.3093 94.992 17.464C95.0613 17.6187 95.1547 17.7467 95.272 17.848C95.3947 17.944 95.536 18.016 95.696 18.064C95.8613 18.1067 96.0373 18.128 96.224 18.128C96.4747 18.128 96.704 18.104 96.912 18.056C97.12 18.0027 97.3147 17.928 97.496 17.832C97.6827 17.736 97.8587 17.6213 98.024 17.488C98.1947 17.3547 98.36 17.2027 98.52 17.032V15.352ZM93.92 12.04C94.368 11.608 94.8507 11.2853 95.368 11.072C95.8853 10.8587 96.4587 10.752 97.088 10.752C97.5413 10.752 97.944 10.8267 98.296 10.976C98.648 11.1253 98.944 11.3333 99.184 11.6C99.424 11.8667 99.6053 12.1893 99.728 12.568C99.8507 12.9467 99.912 13.3627 99.912 13.816V19H99.28C99.1413 19 99.0347 18.9787 98.96 18.936C98.8853 18.888 98.8267 18.7973 98.784 18.664L98.624 17.896C98.4107 18.0933 98.2027 18.2693 98 18.424C97.7973 18.5733 97.584 18.7013 97.36 18.808C97.136 18.9093 96.896 18.9867 96.64 19.04C96.3893 19.0987 96.1093 19.128 95.8 19.128C95.4853 19.128 95.1893 19.0853 94.912 19C94.6347 18.9093 94.392 18.776 94.184 18.6C93.9813 18.424 93.8187 18.2027 93.696 17.936C93.5787 17.664 93.52 17.344 93.52 16.976C93.52 16.656 93.608 16.3493 93.784 16.056C93.96 15.7573 94.2453 15.4933 94.64 15.264C95.0347 15.0347 95.5493 14.848 96.184 14.704C96.8187 14.5547 97.5973 14.4693 98.52 14.448V13.816C98.52 13.1867 98.384 12.712 98.112 12.392C97.84 12.0667 97.4427 11.904 96.92 11.904C96.568 11.904 96.272 11.9493 96.032 12.04C95.7973 12.1253 95.592 12.224 95.416 12.336C95.2453 12.4427 95.096 12.5413 94.968 12.632C94.8453 12.7173 94.7227 12.76 94.6 12.76C94.504 12.76 94.4213 12.736 94.352 12.688C94.2827 12.6347 94.224 12.5707 94.176 12.496L93.92 12.04ZM104.46 19.128C103.82 19.128 103.326 18.9493 102.98 18.592C102.638 18.2347 102.468 17.72 102.468 17.048V12.088H101.492C101.406 12.088 101.334 12.064 101.276 12.016C101.217 11.9627 101.188 11.8827 101.188 11.776V11.208L102.516 11.04L102.844 8.536C102.86 8.456 102.894 8.392 102.948 8.344C103.006 8.29067 103.081 8.264 103.172 8.264H103.892V11.056H106.236V12.088H103.892V16.952C103.892 17.2933 103.974 17.5467 104.14 17.712C104.305 17.8773 104.518 17.96 104.78 17.96C104.929 17.96 105.057 17.9413 105.164 17.904C105.276 17.8613 105.372 17.816 105.452 17.768C105.532 17.72 105.598 17.6773 105.652 17.64C105.71 17.5973 105.761 17.576 105.804 17.576C105.878 17.576 105.945 17.6213 106.004 17.712L106.42 18.392C106.174 18.6213 105.878 18.8027 105.532 18.936C105.185 19.064 104.828 19.128 104.46 19.128ZM113.083 14.064C113.083 13.7333 113.035 13.432 112.939 13.16C112.849 12.8827 112.713 12.6453 112.531 12.448C112.355 12.2453 112.139 12.0907 111.883 11.984C111.627 11.872 111.337 11.816 111.011 11.816C110.329 11.816 109.787 12.016 109.387 12.416C108.993 12.8107 108.747 13.36 108.651 14.064H113.083ZM114.235 17.864C114.059 18.0773 113.849 18.264 113.603 18.424C113.358 18.5787 113.094 18.7067 112.811 18.808C112.534 18.9093 112.246 18.984 111.947 19.032C111.649 19.0853 111.353 19.112 111.059 19.112C110.499 19.112 109.982 19.0187 109.507 18.832C109.038 18.64 108.63 18.3627 108.283 18C107.942 17.632 107.675 17.1787 107.483 16.64C107.291 16.1013 107.195 15.4827 107.195 14.784C107.195 14.2187 107.281 13.6907 107.451 13.2C107.627 12.7093 107.878 12.2853 108.203 11.928C108.529 11.5653 108.926 11.2827 109.395 11.08C109.865 10.872 110.393 10.768 110.979 10.768C111.465 10.768 111.913 10.8507 112.323 11.016C112.739 11.176 113.097 11.4107 113.395 11.72C113.699 12.024 113.937 12.4027 114.107 12.856C114.278 13.304 114.363 13.816 114.363 14.392C114.363 14.616 114.339 14.7653 114.291 14.84C114.243 14.9147 114.153 14.952 114.019 14.952H108.603C108.619 15.464 108.689 15.9093 108.811 16.288C108.939 16.6667 109.115 16.984 109.339 17.24C109.563 17.4907 109.83 17.68 110.139 17.808C110.449 17.9307 110.795 17.992 111.179 17.992C111.537 17.992 111.843 17.952 112.099 17.872C112.361 17.7867 112.585 17.696 112.771 17.6C112.958 17.504 113.113 17.416 113.235 17.336C113.363 17.2507 113.473 17.208 113.563 17.208C113.681 17.208 113.771 17.2533 113.835 17.344L114.235 17.864ZM122.659 19H121.291C121.174 19 121.08 18.9707 121.011 18.912C120.947 18.848 120.894 18.7787 120.851 18.704L118.811 15.528C118.79 15.6027 118.766 15.6773 118.739 15.752C118.718 15.8213 118.686 15.8853 118.643 15.944L116.755 18.704C116.702 18.7787 116.643 18.848 116.579 18.912C116.52 18.9707 116.438 19 116.331 19H115.059L117.899 14.84L115.171 10.896H116.539C116.656 10.896 116.742 10.9147 116.795 10.952C116.848 10.9893 116.896 11.0427 116.939 11.112L118.931 14.152C118.974 13.9973 119.04 13.848 119.131 13.704L120.875 11.144C120.923 11.0693 120.974 11.0107 121.027 10.968C121.086 10.92 121.155 10.896 121.235 10.896H122.547L119.819 14.768L122.659 19ZM123.732 18.12C123.732 17.9813 123.756 17.8507 123.804 17.728C123.857 17.6053 123.926 17.4987 124.012 17.408C124.102 17.3173 124.209 17.2453 124.332 17.192C124.454 17.1387 124.585 17.112 124.724 17.112C124.862 17.112 124.993 17.1387 125.116 17.192C125.238 17.2453 125.345 17.3173 125.436 17.408C125.526 17.4987 125.598 17.6053 125.652 17.728C125.705 17.8507 125.732 17.9813 125.732 18.12C125.732 18.264 125.705 18.3973 125.652 18.52C125.598 18.6373 125.526 18.7413 125.436 18.832C125.345 18.9227 125.238 18.992 125.116 19.04C124.993 19.0933 124.862 19.12 124.724 19.12C124.585 19.12 124.454 19.0933 124.332 19.04C124.209 18.992 124.102 18.9227 124.012 18.832C123.926 18.7413 123.857 18.6373 123.804 18.52C123.756 18.3973 123.732 18.264 123.732 18.12ZM133.393 12.336C133.35 12.3947 133.308 12.44 133.265 12.472C133.222 12.504 133.164 12.52 133.089 12.52C133.009 12.52 132.921 12.488 132.825 12.424C132.729 12.3547 132.609 12.28 132.465 12.2C132.326 12.12 132.153 12.048 131.945 11.984C131.742 11.9147 131.492 11.88 131.193 11.88C130.793 11.88 130.441 11.952 130.137 12.096C129.833 12.2347 129.577 12.4373 129.369 12.704C129.166 12.9707 129.012 13.2933 128.905 13.672C128.804 14.0507 128.753 14.4747 128.753 14.944C128.753 15.4347 128.809 15.872 128.921 16.256C129.033 16.6347 129.19 16.9547 129.393 17.216C129.601 17.472 129.849 17.6693 130.137 17.808C130.43 17.9413 130.758 18.008 131.121 18.008C131.468 18.008 131.753 17.968 131.977 17.888C132.201 17.8027 132.385 17.7093 132.529 17.608C132.678 17.5067 132.801 17.416 132.897 17.336C132.998 17.2507 133.097 17.208 133.193 17.208C133.31 17.208 133.401 17.2533 133.465 17.344L133.865 17.864C133.689 18.0827 133.489 18.2693 133.265 18.424C133.041 18.5787 132.798 18.7093 132.537 18.816C132.281 18.9173 132.012 18.992 131.729 19.04C131.446 19.088 131.158 19.112 130.865 19.112C130.358 19.112 129.886 19.0187 129.449 18.832C129.017 18.6453 128.641 18.376 128.321 18.024C128.001 17.6667 127.75 17.2293 127.569 16.712C127.388 16.1947 127.297 15.6053 127.297 14.944C127.297 14.3413 127.38 13.784 127.545 13.272C127.716 12.76 127.961 12.32 128.281 11.952C128.606 11.5787 129.004 11.288 129.473 11.08C129.948 10.872 130.492 10.768 131.105 10.768C131.676 10.768 132.177 10.8613 132.609 11.048C133.046 11.2293 133.433 11.488 133.769 11.824L133.393 12.336ZM138.669 10.768C139.261 10.768 139.794 10.8667 140.269 11.064C140.744 11.2613 141.149 11.5413 141.485 11.904C141.821 12.2667 142.077 12.7067 142.253 13.224C142.434 13.736 142.525 14.3093 142.525 14.944C142.525 15.584 142.434 16.16 142.253 16.672C142.077 17.184 141.821 17.6213 141.485 17.984C141.149 18.3467 140.744 18.6267 140.269 18.824C139.794 19.016 139.261 19.112 138.669 19.112C138.072 19.112 137.533 19.016 137.053 18.824C136.578 18.6267 136.173 18.3467 135.837 17.984C135.501 17.6213 135.242 17.184 135.061 16.672C134.885 16.16 134.797 15.584 134.797 14.944C134.797 14.3093 134.885 13.736 135.061 13.224C135.242 12.7067 135.501 12.2667 135.837 11.904C136.173 11.5413 136.578 11.2613 137.053 11.064C137.533 10.8667 138.072 10.768 138.669 10.768ZM138.669 18C139.469 18 140.066 17.7333 140.461 17.2C140.856 16.6613 141.053 15.912 141.053 14.952C141.053 13.9867 140.856 13.2347 140.461 12.696C140.066 12.1573 139.469 11.888 138.669 11.888C138.264 11.888 137.909 11.9573 137.605 12.096C137.306 12.2347 137.056 12.4347 136.853 12.696C136.656 12.9573 136.506 13.28 136.405 13.664C136.309 14.0427 136.261 14.472 136.261 14.952C136.261 15.912 136.458 16.6613 136.853 17.2C137.253 17.7333 137.858 18 138.669 18ZM144.331 19V10.896H145.187C145.39 10.896 145.515 10.9947 145.563 11.192L145.667 12.024C145.966 11.656 146.302 11.3547 146.675 11.12C147.048 10.8853 147.48 10.768 147.971 10.768C148.515 10.768 148.955 10.92 149.291 11.224C149.632 11.528 149.878 11.9387 150.027 12.456C150.144 12.1627 150.294 11.9093 150.475 11.696C150.662 11.4827 150.87 11.3067 151.099 11.168C151.328 11.0293 151.571 10.928 151.827 10.864C152.088 10.8 152.352 10.768 152.619 10.768C153.046 10.768 153.424 10.8373 153.755 10.976C154.091 11.1093 154.374 11.3067 154.603 11.568C154.838 11.8293 155.016 12.152 155.139 12.536C155.262 12.9147 155.323 13.3493 155.323 13.84V19H153.891V13.84C153.891 13.2053 153.752 12.7253 153.475 12.4C153.198 12.0693 152.798 11.904 152.275 11.904C152.04 11.904 151.816 11.9467 151.603 12.032C151.395 12.112 151.211 12.232 151.051 12.392C150.891 12.552 150.763 12.7547 150.667 13C150.576 13.24 150.531 13.52 150.531 13.84V19H149.099V13.84C149.099 13.1893 148.968 12.704 148.707 12.384C148.446 12.064 148.064 11.904 147.563 11.904C147.211 11.904 146.886 12 146.587 12.192C146.288 12.3787 146.014 12.6347 145.763 12.96V19H144.331Z" fill="white"/>
</g>
</svg>
