<svg width="136" height="26" viewBox="0 0 136 26" fill="none" xmlns="http://www.w3.org/2000/svg">
<g opacity="0.6">
<path fill-rule="evenodd" clip-rule="evenodd" d="M5.66683 6.94857C5.11454 6.94857 4.66683 7.39628 4.66683 7.94857V18.0527C4.66683 18.605 5.11454 19.0527 5.66683 19.0527H10.3335C10.8858 19.0527 11.3335 18.605 11.3335 18.0527V7.94857C11.3335 7.39628 10.8858 6.94857 10.3335 6.94857H10.2779L10.1155 7.3382C10.012 7.58661 9.76928 7.74842 9.50016 7.74842H6.50016C6.23105 7.74842 5.98832 7.58661 5.8848 7.3382L5.72242 6.94857H5.66683ZM3.3335 7.94857C3.3335 6.6599 4.37817 5.61523 5.66683 5.61523H10.3335C11.6222 5.61523 12.6668 6.6599 12.6668 7.94857V18.0527C12.6668 19.3414 11.6222 20.3861 10.3335 20.3861H5.66683C4.37816 20.3861 3.3335 19.3414 3.3335 18.0527V7.94857Z" fill="white"/>
<path d="M25.96 13.968C25.96 15.1093 26.104 16.2187 26.392 17.296C26.6853 18.3733 27.112 19.3973 27.672 20.368C27.7573 20.5333 27.7787 20.6587 27.736 20.744C27.6933 20.8347 27.632 20.9067 27.552 20.96L26.92 21.344C26.52 20.7307 26.1787 20.1227 25.896 19.52C25.6187 18.9173 25.392 18.312 25.216 17.704C25.0453 17.096 24.92 16.4853 24.84 15.872C24.76 15.2533 24.72 14.6187 24.72 13.968C24.72 13.3227 24.76 12.6907 24.84 12.072C24.92 11.4533 25.0453 10.8427 25.216 10.24C25.392 9.632 25.6187 9.02667 25.896 8.424C26.1787 7.82133 26.52 7.21067 26.92 6.592L27.552 6.984C27.632 7.03733 27.6933 7.10933 27.736 7.2C27.7787 7.28533 27.7573 7.408 27.672 7.568C27.112 8.53867 26.6853 9.56267 26.392 10.64C26.104 11.7173 25.96 12.8267 25.96 13.968ZM34.1056 14.864V10.136C34.1056 9.99733 34.111 9.84533 34.1216 9.68C34.1323 9.51467 34.1483 9.34667 34.1696 9.176L29.9936 14.864H34.1056ZM37.0896 14.864V15.68C37.0896 15.7653 37.063 15.8373 37.0096 15.896C36.9616 15.9547 36.8843 15.984 36.7776 15.984H35.3536V19H34.1056V15.984H29.0176C28.911 15.984 28.8176 15.9547 28.7376 15.896C28.663 15.832 28.615 15.7547 28.5936 15.664L28.4496 14.936L34.0256 7.536H35.3536V14.864H37.0896ZM46.3469 13.272C46.3469 14.2747 46.2375 15.144 46.0189 15.88C45.8055 16.6107 45.5122 17.216 45.1389 17.696C44.7655 18.176 44.3229 18.5333 43.8109 18.768C43.3042 19.0027 42.7602 19.12 42.1789 19.12C41.5922 19.12 41.0455 19.0027 40.5389 18.768C40.0375 18.5333 39.6002 18.176 39.2269 17.696C38.8535 17.216 38.5602 16.6107 38.3469 15.88C38.1335 15.144 38.0269 14.2747 38.0269 13.272C38.0269 12.2693 38.1335 11.4 38.3469 10.664C38.5602 9.928 38.8535 9.32 39.2269 8.84C39.6002 8.35467 40.0375 7.99467 40.5389 7.76C41.0455 7.52533 41.5922 7.408 42.1789 7.408C42.7602 7.408 43.3042 7.52533 43.8109 7.76C44.3229 7.99467 44.7655 8.35467 45.1389 8.84C45.5122 9.32 45.8055 9.928 46.0189 10.664C46.2375 11.4 46.3469 12.2693 46.3469 13.272ZM44.8669 13.272C44.8669 12.3973 44.7922 11.664 44.6429 11.072C44.4989 10.4747 44.3015 9.99467 44.0509 9.632C43.8055 9.26933 43.5202 9.01067 43.1949 8.856C42.8695 8.696 42.5309 8.616 42.1789 8.616C41.8269 8.616 41.4882 8.696 41.1629 8.856C40.8375 9.01067 40.5522 9.26933 40.3069 9.632C40.0615 9.99467 39.8642 10.4747 39.7149 11.072C39.5709 11.664 39.4989 12.3973 39.4989 13.272C39.4989 14.1467 39.5709 14.88 39.7149 15.472C39.8642 16.064 40.0615 16.5413 40.3069 16.904C40.5522 17.2667 40.8375 17.528 41.1629 17.688C41.4882 17.8427 41.8269 17.92 42.1789 17.92C42.5309 17.92 42.8695 17.8427 43.1949 17.688C43.5202 17.528 43.8055 17.2667 44.0509 16.904C44.3015 16.5413 44.4989 16.064 44.6429 15.472C44.7922 14.88 44.8669 14.1467 44.8669 13.272ZM49.7241 11.864C50.3215 11.736 50.8708 11.672 51.3721 11.672C51.9695 11.672 52.4975 11.76 52.9561 11.936C53.4148 12.112 53.7961 12.3547 54.1001 12.664C54.4095 12.9733 54.6415 13.3387 54.7961 13.76C54.9561 14.1813 55.0361 14.64 55.0361 15.136C55.0361 15.744 54.9295 16.2933 54.7161 16.784C54.5081 17.2747 54.2175 17.696 53.8441 18.048C53.4761 18.3947 53.0415 18.6613 52.5401 18.848C52.0388 19.0347 51.4975 19.128 50.9161 19.128C50.5801 19.128 50.2575 19.0933 49.9481 19.024C49.6388 18.96 49.3481 18.872 49.0761 18.76C48.8095 18.648 48.5615 18.52 48.3321 18.376C48.1028 18.232 47.9001 18.08 47.7241 17.92L48.1641 17.312C48.2601 17.1733 48.3855 17.104 48.5401 17.104C48.6468 17.104 48.7668 17.1467 48.9001 17.232C49.0335 17.312 49.1961 17.4027 49.3881 17.504C49.5801 17.6053 49.8041 17.6987 50.0601 17.784C50.3215 17.864 50.6308 17.904 50.9881 17.904C51.3881 17.904 51.7481 17.84 52.0681 17.712C52.3881 17.584 52.6628 17.4027 52.8921 17.168C53.1215 16.928 53.2975 16.6427 53.4201 16.312C53.5428 15.9813 53.6041 15.6107 53.6041 15.2C53.6041 14.8427 53.5508 14.52 53.4441 14.232C53.3428 13.944 53.1855 13.6987 52.9721 13.496C52.7641 13.2933 52.5028 13.136 52.1881 13.024C51.8735 12.912 51.5055 12.856 51.0841 12.856C50.7961 12.856 50.4948 12.88 50.1801 12.928C49.8708 12.976 49.5535 13.0533 49.2281 13.16L48.3321 12.896L49.2521 7.536H54.6841V8.16C54.6841 8.36267 54.6201 8.53067 54.4921 8.664C54.3695 8.792 54.1561 8.856 53.8521 8.856H50.2521L49.7241 11.864ZM58.4214 13.968C58.4214 12.8267 58.2747 11.7173 57.9814 10.64C57.6934 9.56267 57.2694 8.53867 56.7094 7.568C56.6667 7.488 56.64 7.41867 56.6294 7.36C56.6187 7.296 56.6214 7.24267 56.6374 7.2C56.6534 7.152 56.6774 7.112 56.7094 7.08C56.7467 7.04267 56.7867 7.01067 56.8294 6.984L57.4614 6.592C57.8614 7.21067 58.2 7.82133 58.4774 8.424C58.76 9.02667 58.9867 9.632 59.1574 10.24C59.3334 10.8427 59.4614 11.4533 59.5414 12.072C59.6214 12.6907 59.6614 13.3227 59.6614 13.968C59.6614 14.6187 59.6214 15.2533 59.5414 15.872C59.4614 16.4853 59.3334 17.096 59.1574 17.704C58.9867 18.312 58.76 18.9173 58.4774 19.52C58.2 20.1227 57.8614 20.7307 57.4614 21.344L56.8294 20.96C56.7867 20.9333 56.7467 20.9013 56.7094 20.864C56.6774 20.832 56.6534 20.792 56.6374 20.744C56.6214 20.7013 56.6187 20.648 56.6294 20.584C56.64 20.52 56.6667 20.448 56.7094 20.368C57.2694 19.3973 57.6934 18.3733 57.9814 17.296C58.2747 16.2187 58.4214 15.1093 58.4214 13.968ZM67.3648 11.864C67.9621 11.736 68.5114 11.672 69.0128 11.672C69.6101 11.672 70.1381 11.76 70.5968 11.936C71.0554 12.112 71.4368 12.3547 71.7408 12.664C72.0501 12.9733 72.2821 13.3387 72.4368 13.76C72.5968 14.1813 72.6768 14.64 72.6768 15.136C72.6768 15.744 72.5701 16.2933 72.3568 16.784C72.1488 17.2747 71.8581 17.696 71.4848 18.048C71.1168 18.3947 70.6821 18.6613 70.1808 18.848C69.6794 19.0347 69.1381 19.128 68.5568 19.128C68.2208 19.128 67.8981 19.0933 67.5888 19.024C67.2794 18.96 66.9888 18.872 66.7168 18.76C66.4501 18.648 66.2021 18.52 65.9728 18.376C65.7434 18.232 65.5408 18.08 65.3648 17.92L65.8048 17.312C65.9008 17.1733 66.0261 17.104 66.1808 17.104C66.2874 17.104 66.4074 17.1467 66.5408 17.232C66.6741 17.312 66.8368 17.4027 67.0288 17.504C67.2208 17.6053 67.4448 17.6987 67.7008 17.784C67.9621 17.864 68.2714 17.904 68.6288 17.904C69.0288 17.904 69.3888 17.84 69.7088 17.712C70.0288 17.584 70.3034 17.4027 70.5328 17.168C70.7621 16.928 70.9381 16.6427 71.0608 16.312C71.1834 15.9813 71.2448 15.6107 71.2448 15.2C71.2448 14.8427 71.1914 14.52 71.0848 14.232C70.9834 13.944 70.8261 13.6987 70.6128 13.496C70.4048 13.2933 70.1434 13.136 69.8288 13.024C69.5141 12.912 69.1461 12.856 68.7248 12.856C68.4368 12.856 68.1354 12.88 67.8208 12.928C67.5114 12.976 67.1941 13.0533 66.8688 13.16L65.9728 12.896L66.8928 7.536H72.3248V8.16C72.3248 8.36267 72.2608 8.53067 72.1328 8.664C72.0101 8.792 71.7968 8.856 71.4928 8.856H67.8928L67.3648 11.864ZM76.646 11.864C77.2433 11.736 77.7927 11.672 78.294 11.672C78.8913 11.672 79.4193 11.76 79.878 11.936C80.3367 12.112 80.718 12.3547 81.022 12.664C81.3313 12.9733 81.5633 13.3387 81.718 13.76C81.878 14.1813 81.958 14.64 81.958 15.136C81.958 15.744 81.8513 16.2933 81.638 16.784C81.43 17.2747 81.1393 17.696 80.766 18.048C80.398 18.3947 79.9633 18.6613 79.462 18.848C78.9607 19.0347 78.4193 19.128 77.838 19.128C77.502 19.128 77.1793 19.0933 76.87 19.024C76.5607 18.96 76.27 18.872 75.998 18.76C75.7313 18.648 75.4833 18.52 75.254 18.376C75.0247 18.232 74.822 18.08 74.646 17.92L75.086 17.312C75.182 17.1733 75.3073 17.104 75.462 17.104C75.5687 17.104 75.6887 17.1467 75.822 17.232C75.9553 17.312 76.118 17.4027 76.31 17.504C76.502 17.6053 76.726 17.6987 76.982 17.784C77.2433 17.864 77.5527 17.904 77.91 17.904C78.31 17.904 78.67 17.84 78.99 17.712C79.31 17.584 79.5847 17.4027 79.814 17.168C80.0433 16.928 80.2193 16.6427 80.342 16.312C80.4647 15.9813 80.526 15.6107 80.526 15.2C80.526 14.8427 80.4727 14.52 80.366 14.232C80.2647 13.944 80.1073 13.6987 79.894 13.496C79.686 13.2933 79.4247 13.136 79.11 13.024C78.7953 12.912 78.4273 12.856 78.006 12.856C77.718 12.856 77.4167 12.88 77.102 12.928C76.7927 12.976 76.4753 13.0533 76.15 13.16L75.254 12.896L76.174 7.536H81.606V8.16C81.606 8.36267 81.542 8.53067 81.414 8.664C81.2913 8.792 81.078 8.856 80.774 8.856H77.174L76.646 11.864ZM85.9273 11.864C86.5246 11.736 87.0739 11.672 87.5753 11.672C88.1726 11.672 88.7006 11.76 89.1593 11.936C89.6179 12.112 89.9993 12.3547 90.3033 12.664C90.6126 12.9733 90.8446 13.3387 90.9993 13.76C91.1593 14.1813 91.2393 14.64 91.2393 15.136C91.2393 15.744 91.1326 16.2933 90.9193 16.784C90.7113 17.2747 90.4206 17.696 90.0473 18.048C89.6793 18.3947 89.2446 18.6613 88.7433 18.848C88.2419 19.0347 87.7006 19.128 87.1193 19.128C86.7833 19.128 86.4606 19.0933 86.1513 19.024C85.8419 18.96 85.5513 18.872 85.2793 18.76C85.0126 18.648 84.7646 18.52 84.5353 18.376C84.3059 18.232 84.1033 18.08 83.9273 17.92L84.3673 17.312C84.4633 17.1733 84.5886 17.104 84.7433 17.104C84.8499 17.104 84.9699 17.1467 85.1033 17.232C85.2366 17.312 85.3993 17.4027 85.5913 17.504C85.7833 17.6053 86.0073 17.6987 86.2633 17.784C86.5246 17.864 86.8339 17.904 87.1913 17.904C87.5913 17.904 87.9513 17.84 88.2713 17.712C88.5913 17.584 88.8659 17.4027 89.0953 17.168C89.3246 16.928 89.5006 16.6427 89.6233 16.312C89.7459 15.9813 89.8073 15.6107 89.8073 15.2C89.8073 14.8427 89.7539 14.52 89.6473 14.232C89.5459 13.944 89.3886 13.6987 89.1753 13.496C88.9673 13.2933 88.7059 13.136 88.3913 13.024C88.0766 12.912 87.7086 12.856 87.2873 12.856C86.9993 12.856 86.6979 12.88 86.3833 12.928C86.0739 12.976 85.7566 13.0533 85.4313 13.16L84.5353 12.896L85.4553 7.536H90.8873V8.16C90.8873 8.36267 90.8233 8.53067 90.6953 8.664C90.5726 8.792 90.3593 8.856 90.0553 8.856H86.4553L85.9273 11.864ZM93.3125 13.6H97.2645V14.808H93.3125V13.6ZM107.05 13.272C107.05 14.2747 106.941 15.144 106.722 15.88C106.509 16.6107 106.215 17.216 105.842 17.696C105.469 18.176 105.026 18.5333 104.514 18.768C104.007 19.0027 103.463 19.12 102.882 19.12C102.295 19.12 101.749 19.0027 101.242 18.768C100.741 18.5333 100.303 18.176 99.93 17.696C99.5567 17.216 99.2633 16.6107 99.05 15.88C98.8367 15.144 98.73 14.2747 98.73 13.272C98.73 12.2693 98.8367 11.4 99.05 10.664C99.2633 9.928 99.5567 9.32 99.93 8.84C100.303 8.35467 100.741 7.99467 101.242 7.76C101.749 7.52533 102.295 7.408 102.882 7.408C103.463 7.408 104.007 7.52533 104.514 7.76C105.026 7.99467 105.469 8.35467 105.842 8.84C106.215 9.32 106.509 9.928 106.722 10.664C106.941 11.4 107.05 12.2693 107.05 13.272ZM105.57 13.272C105.57 12.3973 105.495 11.664 105.346 11.072C105.202 10.4747 105.005 9.99467 104.754 9.632C104.509 9.26933 104.223 9.01067 103.898 8.856C103.573 8.696 103.234 8.616 102.882 8.616C102.53 8.616 102.191 8.696 101.866 8.856C101.541 9.01067 101.255 9.26933 101.01 9.632C100.765 9.99467 100.567 10.4747 100.418 11.072C100.274 11.664 100.202 12.3973 100.202 13.272C100.202 14.1467 100.274 14.88 100.418 15.472C100.567 16.064 100.765 16.5413 101.01 16.904C101.255 17.2667 101.541 17.528 101.866 17.688C102.191 17.8427 102.53 17.92 102.882 17.92C103.234 17.92 103.573 17.8427 103.898 17.688C104.223 17.528 104.509 17.2667 104.754 16.904C105.005 16.5413 105.202 16.064 105.346 15.472C105.495 14.88 105.57 14.1467 105.57 13.272ZM115.675 17.912V19H109.531V17.912H111.987V10.096C111.987 9.86133 111.995 9.624 112.011 9.384L109.971 11.136C109.902 11.1947 109.833 11.232 109.763 11.248C109.694 11.2587 109.63 11.2587 109.571 11.248C109.513 11.2373 109.457 11.216 109.403 11.184C109.355 11.152 109.318 11.1173 109.291 11.08L108.843 10.464L112.259 7.512H113.419V17.912H115.675ZM124.709 17.648C124.863 17.648 124.986 17.6933 125.076 17.784C125.167 17.8747 125.213 17.992 125.213 18.136V19H117.565V18.512C117.565 18.4107 117.586 18.3067 117.629 18.2C117.671 18.0933 117.738 17.9947 117.829 17.904L121.501 14.216C121.805 13.9067 122.082 13.6107 122.333 13.328C122.583 13.04 122.797 12.752 122.973 12.464C123.149 12.176 123.285 11.8853 123.381 11.592C123.477 11.2933 123.525 10.976 123.525 10.64C123.525 10.304 123.471 10.0107 123.365 9.76C123.258 9.504 123.111 9.29333 122.925 9.128C122.743 8.96267 122.527 8.84 122.277 8.76C122.026 8.67467 121.757 8.632 121.469 8.632C121.175 8.632 120.906 8.67467 120.661 8.76C120.415 8.84533 120.197 8.96533 120.005 9.12C119.818 9.26933 119.661 9.448 119.533 9.656C119.405 9.864 119.314 10.0933 119.261 10.344C119.197 10.5307 119.109 10.656 118.997 10.72C118.89 10.7787 118.738 10.7947 118.541 10.768L117.797 10.64C117.871 10.1173 118.015 9.656 118.229 9.256C118.447 8.85067 118.719 8.512 119.045 8.24C119.375 7.968 119.751 7.76267 120.173 7.624C120.594 7.48 121.05 7.408 121.541 7.408C122.026 7.408 122.479 7.48 122.901 7.624C123.322 7.768 123.687 7.97867 123.997 8.256C124.306 8.528 124.549 8.86133 124.725 9.256C124.901 9.65067 124.989 10.0987 124.989 10.6C124.989 11.0267 124.925 11.424 124.797 11.792C124.669 12.1547 124.495 12.5013 124.277 12.832C124.058 13.1627 123.805 13.4853 123.517 13.8C123.234 14.1147 122.933 14.432 122.613 14.752L119.589 17.84C119.802 17.7813 120.018 17.736 120.237 17.704C120.455 17.6667 120.666 17.648 120.869 17.648H124.709ZM130.734 17.992C131.107 17.992 131.44 17.9413 131.734 17.84C132.032 17.7333 132.283 17.5867 132.486 17.4C132.694 17.208 132.851 16.9813 132.958 16.72C133.07 16.4533 133.126 16.16 133.126 15.84C133.126 15.4453 133.059 15.1093 132.926 14.832C132.798 14.5493 132.622 14.32 132.398 14.144C132.179 13.968 131.926 13.84 131.638 13.76C131.35 13.6747 131.048 13.632 130.734 13.632C130.419 13.632 130.118 13.6747 129.83 13.76C129.542 13.84 129.286 13.968 129.062 14.144C128.843 14.32 128.667 14.5493 128.534 14.832C128.406 15.1093 128.342 15.4453 128.342 15.84C128.342 16.16 128.395 16.4533 128.502 16.72C128.614 16.9813 128.771 17.208 128.974 17.4C129.182 17.5867 129.432 17.7333 129.726 17.84C130.024 17.9413 130.36 17.992 130.734 17.992ZM130.734 8.512C130.392 8.512 130.091 8.56267 129.83 8.664C129.574 8.76533 129.358 8.904 129.182 9.08C129.011 9.256 128.88 9.46133 128.79 9.696C128.704 9.93067 128.662 10.1813 128.662 10.448C128.662 10.7093 128.699 10.9627 128.774 11.208C128.848 11.4533 128.968 11.672 129.134 11.864C129.299 12.0507 129.512 12.2027 129.774 12.32C130.04 12.432 130.36 12.488 130.734 12.488C131.107 12.488 131.424 12.432 131.686 12.32C131.952 12.2027 132.168 12.0507 132.334 11.864C132.499 11.672 132.619 11.4533 132.694 11.208C132.768 10.9627 132.806 10.7093 132.806 10.448C132.806 10.1813 132.76 9.93067 132.67 9.696C132.584 9.46133 132.454 9.256 132.278 9.08C132.107 8.904 131.891 8.76533 131.63 8.664C131.374 8.56267 131.075 8.512 130.734 8.512ZM132.374 13.024C133.088 13.2267 133.638 13.5653 134.022 14.04C134.406 14.5147 134.598 15.1227 134.598 15.864C134.598 16.3653 134.502 16.8187 134.31 17.224C134.123 17.624 133.859 17.9653 133.518 18.248C133.182 18.5307 132.776 18.7493 132.302 18.904C131.827 19.0533 131.304 19.128 130.734 19.128C130.163 19.128 129.64 19.0533 129.166 18.904C128.691 18.7493 128.283 18.5307 127.942 18.248C127.6 17.9653 127.336 17.624 127.15 17.224C126.963 16.8187 126.87 16.3653 126.87 15.864C126.87 15.1227 127.062 14.5147 127.446 14.04C127.83 13.5653 128.379 13.2267 129.094 13.024C128.491 12.8 128.035 12.4667 127.726 12.024C127.422 11.576 127.27 11.0427 127.27 10.424C127.27 10.0027 127.352 9.608 127.518 9.24C127.683 8.872 127.918 8.552 128.222 8.28C128.526 8.008 128.888 7.79467 129.31 7.64C129.736 7.48533 130.211 7.408 130.734 7.408C131.251 7.408 131.723 7.48533 132.15 7.64C132.576 7.79467 132.942 8.008 133.246 8.28C133.55 8.552 133.784 8.872 133.95 9.24C134.115 9.608 134.198 10.0027 134.198 10.424C134.198 11.0427 134.043 11.576 133.734 12.024C133.43 12.4667 132.976 12.8 132.374 13.024Z" fill="white"/>
</g>
</svg>
