<svg width="16" height="16" viewBox="0 0 16 16" fill="none" xmlns="http://www.w3.org/2000/svg">
<path fill-rule="evenodd" clip-rule="evenodd" d="M10.5633 6.94002C11.2615 7.47368 11.2615 8.52507 10.5633 9.05873L7.50997 11.3924C6.63257 12.0629 5.36698 11.4373 5.36697 10.333V5.66575C5.36697 4.56144 6.63257 3.93581 7.50997 4.6064L10.5633 6.94002ZM9.7536 7.99938L6.70031 5.66575L6.70031 10.333L9.7536 7.99938Z" fill="#424551"/>
<path fill-rule="evenodd" clip-rule="evenodd" d="M7.8514 1.99935C4.53769 1.99935 1.8514 4.68564 1.8514 7.99935C1.8514 11.3131 4.53769 13.9993 7.8514 13.9993C11.1651 13.9993 13.8514 11.3131 13.8514 7.99935C13.8514 4.68564 11.1651 1.99935 7.8514 1.99935ZM0.518066 7.99935C0.518066 3.94926 3.80131 0.666016 7.8514 0.666016C11.9015 0.666016 15.1847 3.94926 15.1847 7.99935C15.1847 12.0494 11.9015 15.3327 7.8514 15.3327C3.80131 15.3327 0.518066 12.0494 0.518066 7.99935Z" fill="#424551"/>
</svg>
