<svg width="13" height="16" viewBox="0 0 13 16" fill="none" xmlns="http://www.w3.org/2000/svg">
<path fill-rule="evenodd" clip-rule="evenodd" d="M2.20365 4.26706C2.20365 2.13156 3.93481 0.400391 6.07031 0.400391C8.20581 0.400391 9.93698 2.13156 9.93698 4.26706V7.46706C9.93698 9.60256 8.20581 11.3337 6.07031 11.3337C3.93481 11.3337 2.20365 9.60256 2.20365 7.46706V4.26706ZM6.07031 1.73372C4.67119 1.73372 3.53698 2.86794 3.53698 4.26706V7.46706C3.53698 8.86618 4.67119 10.0004 6.07031 10.0004C7.46943 10.0004 8.60365 8.86618 8.60365 7.46706V4.26706C8.60365 2.86794 7.46943 1.73372 6.07031 1.73372Z" fill="#424551"/>
<path fill-rule="evenodd" clip-rule="evenodd" d="M0.736979 5.73372C1.10517 5.73372 1.40365 6.0322 1.40365 6.40039V7.46706C1.40365 10.0444 3.49298 12.1337 6.07031 12.1337C8.64764 12.1337 10.737 10.0444 10.737 7.46706V6.40039C10.737 6.0322 11.0355 5.73372 11.4036 5.73372C11.7718 5.73372 12.0703 6.0322 12.0703 6.40039V7.46706C12.0703 10.7808 9.38402 13.4671 6.07031 13.4671C2.7566 13.4671 0.0703125 10.7808 0.0703125 7.46706V6.40039C0.0703125 6.0322 0.368789 5.73372 0.736979 5.73372Z" fill="#424551"/>
<path fill-rule="evenodd" clip-rule="evenodd" d="M6.07031 12.6671C6.4385 12.6671 6.73698 12.9655 6.73698 13.3337V14.2671H8.20365C8.57184 14.2671 8.87031 14.5655 8.87031 14.9337C8.87031 15.3019 8.57184 15.6004 8.20365 15.6004H3.93698C3.56879 15.6004 3.27031 15.3019 3.27031 14.9337C3.27031 14.5655 3.56879 14.2671 3.93698 14.2671H5.40365V13.3337C5.40365 12.9655 5.70212 12.6671 6.07031 12.6671Z" fill="#424551"/>
</svg>
