<svg width="625" height="551" viewBox="0 0 625 551" fill="none" xmlns="http://www.w3.org/2000/svg">
<path d="M392.724 15.918L436.158 56.3535L479.812 284.295H70.3359L392.724 15.918Z" fill="#FFCF2D"/>
<path d="M436.532 56.036L392.966 15.4735L400.252 8.16972C410.985 -2.58485 430.321 -1.35696 441.47 8.9742C452.619 19.3265 454.573 37.9776 443.84 48.7322L436.532 56.036Z" fill="white"/>
<path d="M436.554 56.925L392.044 15.4945L399.791 7.72497C405.015 2.47471 412.455 -0.256271 420.751 0.0189438C428.696 0.294159 436.422 3.38504 441.953 8.50828C447.484 13.6315 450.973 20.9776 451.544 28.6413C452.136 36.6226 449.569 43.9052 444.345 49.1555L436.554 56.925ZM393.888 15.4522L436.51 55.1255L443.357 48.2875C448.339 43.3124 450.754 36.3685 450.205 28.7472C449.656 21.3799 446.32 14.3513 441.009 9.43977C435.698 4.52824 428.301 1.56438 420.686 1.31034C412.784 1.03512 405.695 3.63908 400.735 8.61413L393.888 15.4522Z" fill="#FFCF2D"/>
<path d="M443.819 49.367C443.643 49.367 443.489 49.3035 443.358 49.1977L399.77 8.63516C399.506 8.38112 399.506 8.00005 399.748 7.746C400.011 7.49196 400.428 7.49196 400.67 7.72483L444.257 48.2873C444.521 48.5414 444.521 48.9224 444.279 49.1765C444.17 49.3035 443.994 49.367 443.819 49.367Z" fill="#FFCF2D"/>
<path d="M528.009 283.194C527.921 283.194 527.834 283.173 527.746 283.131C527.417 282.983 527.263 282.602 527.417 282.284L588.541 150.773L469.036 10.456V10.4348C466.775 7.47095 463.461 5.56561 459.686 5.03635C455.911 4.50709 452.158 5.45976 449.13 7.70382L444.257 11.3028C443.972 11.5145 443.555 11.4722 443.335 11.1758C443.116 10.9006 443.16 10.4983 443.467 10.2866L448.339 6.68764C451.654 4.25304 455.758 3.2157 459.884 3.7873C464.01 4.3589 467.631 6.4336 470.09 9.67267L590.077 150.583L589.901 150.943L528.602 282.813C528.492 283.046 528.251 283.194 528.009 283.194Z" fill="#3FB1B5"/>
<path d="M587.355 157.865C591.064 157.865 594.071 154.965 594.071 151.387C594.071 147.81 591.064 144.909 587.355 144.909C583.646 144.909 580.639 147.81 580.639 151.387C580.639 154.965 583.646 157.865 587.355 157.865Z" fill="white"/>
<path d="M587.355 158.501C583.295 158.501 579.981 155.304 579.981 151.388C579.981 147.471 583.295 144.274 587.355 144.274C591.416 144.274 594.73 147.471 594.73 151.388C594.73 155.304 591.416 158.501 587.355 158.501ZM587.355 145.545C584.019 145.545 581.298 148.17 581.298 151.388C581.298 154.606 584.019 157.231 587.355 157.231C590.691 157.231 593.413 154.606 593.413 151.388C593.413 148.17 590.691 145.545 587.355 145.545Z" fill="#FFCF2D"/>
<path d="M510.978 267.824H543.701C553.117 267.824 560.733 275.192 560.733 284.252V284.718H493.924V284.252C493.946 275.192 501.562 267.824 510.978 267.824Z" fill="white"/>
<path d="M561.391 285.354H493.266V284.253C493.288 274.853 501.233 267.189 510.978 267.189H543.702C553.446 267.189 561.391 274.853 561.391 284.253V285.354V285.354ZM494.583 284.083H560.075C559.987 275.446 552.678 268.46 543.702 268.46H510.978C502.023 268.46 494.693 275.446 494.583 284.083Z" fill="#FFCF2D"/>
<path d="M352.45 236.64H145.287C137.495 236.64 131.196 230.564 131.196 223.049V83.2818C131.196 75.7663 137.495 69.6904 145.287 69.6904H352.45C360.241 69.6904 366.54 75.7663 366.54 83.2818V223.028C366.562 230.543 360.241 236.64 352.45 236.64Z" fill="white"/>
<path d="M352.45 237.276H145.287C137.144 237.276 130.538 230.903 130.538 223.049V83.2822C130.538 75.428 137.144 69.0557 145.287 69.0557H352.45C360.593 69.0557 367.199 75.428 367.199 83.2822V223.028C367.221 226.818 365.685 230.395 362.897 233.084C360.11 235.794 356.401 237.276 352.45 237.276ZM145.287 70.3259C137.891 70.3259 131.855 76.1478 131.855 83.2822V223.049C131.855 230.184 137.891 236.005 145.287 236.005H352.45C356.05 236.005 359.43 234.651 361.975 232.195C364.499 229.739 365.904 226.479 365.882 223.028V83.2822C365.882 76.1478 359.846 70.3259 352.45 70.3259H145.287Z" fill="#3FB1B5"/>
<path d="M352.582 223.642H147.416C144.365 223.642 141.907 221.249 141.907 218.328V84.6155C141.907 81.6728 144.387 79.3018 147.416 79.3018H352.582C355.632 79.3018 358.09 81.694 358.09 84.6155V218.307C358.112 221.249 355.632 223.642 352.582 223.642Z" fill="#66B0F0"/>
<path d="M352.582 224.277H147.416C144.014 224.277 141.249 221.61 141.249 218.328V84.6159C141.249 81.3345 144.014 78.667 147.416 78.667H352.582C355.984 78.667 358.749 81.3345 358.749 84.6159V218.307C358.771 219.895 358.135 221.398 356.971 222.52C355.786 223.642 354.25 224.277 352.582 224.277ZM147.416 79.9372C144.738 79.9372 142.565 82.0331 142.565 84.6159V218.328C142.565 220.911 144.738 223.007 147.416 223.007H352.582C353.877 223.007 355.106 222.52 356.028 221.631C356.949 220.742 357.432 219.577 357.432 218.328V84.6159C357.432 82.0331 355.259 79.9372 352.582 79.9372H147.416Z" fill="#66B0F0"/>
<path d="M154.768 92.4283H151.52C150.093 92.4283 148.93 91.3062 148.93 89.9302V86.7969C148.93 85.4209 150.093 84.2988 151.52 84.2988H154.768C156.195 84.2988 157.358 85.4209 157.358 86.7969V89.9302C157.336 91.3274 156.195 92.4283 154.768 92.4283ZM151.52 85.5691C150.818 85.5691 150.247 86.1195 150.247 86.7969V89.9302C150.247 90.6076 150.818 91.1581 151.52 91.1581H154.768C155.471 91.1581 156.019 90.6076 156.041 89.909V86.7969C156.041 86.1195 155.471 85.5691 154.768 85.5691H151.52V85.5691Z" fill="white"/>
<path d="M169.539 92.4283H166.291C164.864 92.4283 163.701 91.3062 163.701 89.9302V86.7969C163.701 85.4209 164.864 84.2988 166.291 84.2988H169.539C170.965 84.2988 172.129 85.4209 172.129 86.7969V89.9302C172.129 91.3062 170.965 92.4283 169.539 92.4283ZM166.291 85.5691C165.588 85.5691 165.018 86.1195 165.018 86.7969V89.9302C165.018 90.6076 165.588 91.1581 166.291 91.1581H169.539C170.241 91.1581 170.812 90.6076 170.812 89.9302V86.7969C170.812 86.1195 170.241 85.5691 169.539 85.5691H166.291Z" fill="white"/>
<path d="M184.31 92.4283H181.062C179.635 92.4283 178.472 91.3062 178.472 89.9302V86.7969C178.472 85.4209 179.635 84.2988 181.062 84.2988H184.31C185.736 84.2988 186.9 85.4209 186.9 86.7969V89.9302C186.9 91.3062 185.736 92.4283 184.31 92.4283ZM181.062 85.5691C180.359 85.5691 179.789 86.1195 179.789 86.7969V89.9302C179.789 90.6076 180.359 91.1581 181.062 91.1581H184.31C185.034 91.1581 185.583 90.6288 185.583 89.9302V86.7969C185.583 86.1195 185.012 85.5691 184.31 85.5691H181.062Z" fill="white"/>
<path d="M292.599 284.295H212.183L227.963 236.641H276.797L292.599 284.295Z" fill="white"/>
<path d="M293.498 284.931H211.283L227.48 236.006H277.279L293.498 284.931ZM213.082 283.66H291.699L276.313 237.276H228.446L213.082 283.66Z" fill="#3FB1B5"/>
<path d="M218.503 265.221L227.963 236.641H276.796L218.503 265.221Z" fill="#3FB1B5"/>
<path d="M340.642 123.781H301.554C297.537 123.781 294.267 120.627 294.267 116.752V92.4065C294.267 88.5323 297.537 85.3779 301.554 85.3779H340.642C344.659 85.3779 347.929 88.5323 347.929 92.4065V116.752C347.929 120.627 344.659 123.781 340.642 123.781ZM301.554 86.6482C298.262 86.6482 295.584 89.2309 295.584 92.4065V116.752C295.584 119.928 298.262 122.511 301.554 122.511H340.642C343.934 122.511 346.612 119.928 346.612 116.752V92.4065C346.612 89.2309 343.934 86.6482 340.642 86.6482H301.554Z" fill="white"/>
<path d="M335.923 95.3278H306.096C305.723 95.3278 305.438 95.0526 305.438 94.6927C305.438 94.3328 305.723 94.0576 306.096 94.0576H335.923C336.296 94.0576 336.581 94.3328 336.581 94.6927C336.581 95.0526 336.296 95.3278 335.923 95.3278Z" fill="white"/>
<path d="M335.923 101.891H306.096C305.723 101.891 305.438 101.616 305.438 101.256C305.438 100.896 305.723 100.621 306.096 100.621H335.923C336.296 100.621 336.581 100.896 336.581 101.256C336.581 101.616 336.296 101.891 335.923 101.891Z" fill="white"/>
<path d="M335.923 108.454H306.096C305.723 108.454 305.438 108.179 305.438 107.819C305.438 107.459 305.723 107.184 306.096 107.184H335.923C336.296 107.184 336.581 107.459 336.581 107.819C336.581 108.179 336.296 108.454 335.923 108.454Z" fill="white"/>
<path d="M335.923 115.016H306.096C305.723 115.016 305.438 114.741 305.438 114.381C305.438 114.021 305.723 113.746 306.096 113.746H335.923C336.296 113.746 336.581 114.021 336.581 114.381C336.581 114.741 336.296 115.016 335.923 115.016Z" fill="white"/>
<path d="M351.441 223.643H196.074L186.966 236.239C176.672 250.466 154.922 250.677 144.343 236.641L88.8599 163.032C91.1863 165.826 101.831 162.714 111.971 156.279C122.264 149.737 128.914 141.502 126.829 138.453L165.303 185.748L177.089 165.678C180.315 160.364 185.671 156.554 191.904 155.157L232.002 146.964H266.569L304.67 155.072C311.299 156.533 316.917 160.703 320.1 166.483L351.441 223.643Z" fill="white"/>
<path d="M165.501 247.671C156.831 247.671 148.93 243.797 143.816 237.001L88.333 163.392L89.3865 162.63C91.252 164.853 101.15 162.397 111.619 155.749C116.492 152.658 120.728 149.081 123.537 145.651C126.083 142.56 127.114 139.998 126.28 138.792L127.356 138.051L165.215 184.605L176.518 165.361C179.832 159.899 185.385 155.961 191.75 154.543L231.936 146.328H266.635L266.701 146.35L304.802 154.458C311.606 155.961 317.4 160.237 320.67 166.186L352.516 224.278H196.403L187.492 236.599C182.466 243.543 174.543 247.586 165.742 247.671C165.676 247.671 165.588 247.671 165.501 247.671ZM90.8789 164.62L144.892 236.26C149.808 242.781 157.402 246.486 165.764 246.401C174.126 246.316 181.654 242.484 186.439 235.879L195.744 223.008H350.365L319.529 166.779C316.434 161.148 310.969 157.104 304.539 155.686L266.503 147.599H232.068L192.035 155.77C186.022 157.125 180.776 160.851 177.66 165.996L165.391 186.891L127.773 140.655C127.466 142.243 126.39 144.233 124.547 146.455C121.649 149.97 117.304 153.653 112.322 156.808C105.364 161.211 97.0023 164.683 92.0202 164.683C91.6251 164.683 91.2301 164.662 90.8789 164.62Z" fill="#3FB1B5"/>
<path d="M308.797 223.41C308.555 223.41 308.336 223.283 308.204 223.072L297.165 202.049C297.011 201.732 297.121 201.351 297.45 201.203C297.779 201.054 298.174 201.16 298.328 201.478L309.367 222.5C309.521 222.818 309.411 223.199 309.082 223.347C308.994 223.389 308.906 223.41 308.797 223.41Z" fill="#3FB1B5"/>
<path d="M195.196 225.379C195.086 225.379 194.998 225.358 194.889 225.315C194.56 225.167 194.428 224.765 194.603 224.469L205.533 203.658C205.687 203.341 206.104 203.214 206.411 203.383C206.74 203.531 206.872 203.933 206.697 204.23L195.767 225.04C195.657 225.252 195.437 225.379 195.196 225.379Z" fill="#3FB1B5"/>
<path d="M175.377 198.916C175.18 198.916 174.982 198.831 174.85 198.662L149.808 167.774C149.589 167.499 149.633 167.097 149.918 166.885C150.203 166.673 150.62 166.716 150.84 166.991L175.882 197.878C176.101 198.153 176.058 198.556 175.772 198.767C175.662 198.873 175.509 198.916 175.377 198.916Z" fill="#3FB1B5"/>
<path d="M262.729 168.854L253.094 157.528C252.852 157.253 252.896 156.851 253.181 156.639C253.467 156.406 253.884 156.449 254.103 156.724L262.904 167.034L283.03 150.563C283.316 150.33 283.733 150.373 283.952 150.627C284.194 150.902 284.15 151.304 283.886 151.516L262.729 168.854Z" fill="#3FB1B5"/>
<path d="M237.708 169.257L214.51 151.537C214.224 151.325 214.181 150.923 214.4 150.648C214.62 150.373 215.037 150.33 215.322 150.542L237.467 167.457L246.005 156.936C246.224 156.66 246.641 156.618 246.926 156.83C247.212 157.041 247.256 157.444 247.036 157.719L237.708 169.257Z" fill="#3FB1B5"/>
<path d="M99.4168 174.464C97.3317 174.464 96.2344 173.85 95.6857 173.172C95.4662 172.897 95.5101 172.495 95.7954 172.283C96.0807 172.071 96.4977 172.114 96.7172 172.389C97.639 173.511 100.646 173.447 104.75 172.262C109.118 170.992 114.385 168.493 119.17 165.424C124.064 162.291 128.322 158.67 131.153 155.198C133.721 152.065 134.752 149.482 133.918 148.255C133.721 147.958 133.809 147.577 134.116 147.365C134.423 147.175 134.818 147.26 135.038 147.556C136.223 149.313 135.213 152.298 132.206 155.982C129.287 159.538 124.92 163.264 119.916 166.461C114.956 169.637 109.71 172.135 105.145 173.469C102.665 174.188 100.799 174.464 99.4168 174.464Z" fill="#3FB1B5"/>
<path d="M127.576 153.907C125.842 153.907 124.437 152.552 124.437 150.88C124.437 149.207 125.842 147.853 127.576 147.853C129.309 147.853 130.714 149.207 130.714 150.88C130.714 152.552 129.309 153.907 127.576 153.907ZM127.576 149.123C126.566 149.123 125.754 149.906 125.754 150.88C125.754 151.854 126.566 152.637 127.576 152.637C128.585 152.637 129.397 151.854 129.397 150.88C129.397 149.906 128.585 149.123 127.576 149.123Z" fill="#3FB1B5"/>
<path d="M250.043 168.939C248.309 168.939 246.904 167.584 246.904 165.911C246.904 164.239 248.309 162.884 250.043 162.884C251.777 162.884 253.181 164.239 253.181 165.911C253.181 167.584 251.777 168.939 250.043 168.939ZM250.043 164.154C249.033 164.154 248.221 164.937 248.221 165.911C248.221 166.885 249.033 167.668 250.043 167.668C251.052 167.668 251.864 166.885 251.864 165.911C251.864 164.937 251.052 164.154 250.043 164.154Z" fill="#3FB1B5"/>
<path d="M250.043 188.203C248.309 188.203 246.904 186.848 246.904 185.176C246.904 183.503 248.309 182.148 250.043 182.148C251.777 182.148 253.181 183.503 253.181 185.176C253.181 186.848 251.777 188.203 250.043 188.203ZM250.043 183.419C249.033 183.419 248.221 184.202 248.221 185.176C248.221 186.15 249.033 186.933 250.043 186.933C251.052 186.933 251.864 186.15 251.864 185.176C251.864 184.202 251.052 183.419 250.043 183.419Z" fill="#3FB1B5"/>
<path d="M186.175 237.255L196.074 223.643V237.255H186.175Z" fill="#3FB1B5"/>
<path d="M111.729 155.643C101.589 162.079 90.9446 165.191 88.6182 162.397C88.5743 162.354 88.5524 162.312 88.5085 162.249C88.0256 161.55 88.0695 160.597 88.5085 159.433C90.0229 155.601 96.2779 149.673 104.223 144.635C110.544 140.612 116.777 137.818 121.101 136.95C123.603 136.463 125.468 136.611 126.368 137.543L126.588 137.797C128.651 140.845 122.022 149.102 111.729 155.643Z" fill="#FE5244"/>
<path d="M111.729 155.643C105.957 159.305 100.009 161.909 95.5316 162.925L75.4935 135.658C72.7062 131.847 73.628 126.576 77.6005 123.887L95.6414 111.651L85.4138 94.8626C83.9214 92.428 84.7773 89.2736 87.3232 87.8552C88.1572 87.3894 89.0571 87.1777 89.9569 87.1777C91.6908 87.1777 93.4027 88.0034 94.4123 89.5277L126.39 137.5L126.609 137.839C128.651 140.845 122.022 149.101 111.729 155.643Z" fill="#E57281"/>
<path d="M101.304 135.975C101.019 135.975 100.733 135.954 100.448 135.89C99.3505 135.679 98.4068 135.043 97.8142 134.154L87.2574 118.912C87.0599 118.615 87.1477 118.234 87.433 118.022C87.7402 117.832 88.1353 117.917 88.3548 118.192L98.9116 133.434C99.3286 134.048 99.965 134.472 100.711 134.62C101.457 134.768 102.226 134.62 102.862 134.218L105.342 132.651C106.659 131.826 107.032 130.132 106.198 128.862L95.0269 112.158C94.8293 111.862 94.9171 111.481 95.2244 111.29C95.5316 111.1 95.9267 111.184 96.1242 111.481L107.296 128.184C108.525 130.047 107.954 132.524 106.045 133.71L103.564 135.276C102.906 135.742 102.116 135.975 101.304 135.975Z" fill="#9A3B82"/>
<path d="M93.1176 141.035C91.7568 141.035 90.418 140.4 89.606 139.235C89.4084 138.939 89.4962 138.558 89.8035 138.346C90.1108 138.156 90.5058 138.24 90.7253 138.537C91.5812 139.786 93.337 140.146 94.6539 139.341L96.9145 137.965C97.551 137.563 98.0119 136.949 98.1655 136.208C98.3191 135.467 98.1875 134.726 97.7705 134.112C97.5729 133.816 97.6607 133.435 97.968 133.223C98.2752 133.032 98.6703 133.117 98.8898 133.413C99.5043 134.324 99.7238 135.403 99.4824 136.483C99.2409 137.542 98.5825 138.452 97.6388 139.045L95.3782 140.421C94.6759 140.823 93.8857 141.035 93.1176 141.035Z" fill="#9A3B82"/>
<path d="M85.085 145.778C83.7682 145.778 82.4733 145.185 81.6612 144.063L75.6695 135.912C75.45 135.616 75.5378 135.235 75.8232 135.023C76.1085 134.811 76.5255 134.896 76.7449 135.171L82.7366 143.322C83.6365 144.529 85.3265 144.846 86.5994 144.063L86.6433 144.042L88.7283 142.92C89.3867 142.518 89.8257 141.904 90.0013 141.184C90.1769 140.443 90.0232 139.702 89.6062 139.067L79.2689 124.247C79.0714 123.951 79.1372 123.57 79.4445 123.358C79.7518 123.168 80.1468 123.231 80.3663 123.528L90.7036 138.347C91.3401 139.278 91.5376 140.379 91.2962 141.438C91.0548 142.496 90.3964 143.407 89.4307 143.978L89.4087 143.999L87.3237 145.121C86.5994 145.587 85.8312 145.778 85.085 145.778Z" fill="#9A3B82"/>
<path d="M118.928 126.322L113.682 118.468C111.948 115.864 108.327 115.144 105.671 116.88L92.6562 125.39C92.6562 125.39 96.4312 131.932 105.605 126.745L108.678 131.466C102.401 135.298 100.601 143.364 104.684 149.355L118.928 126.322Z" fill="#E57281"/>
<path d="M104.684 149.99C104.464 149.99 104.267 149.884 104.135 149.693C102.072 146.645 101.347 143.004 102.16 139.447C102.906 136.102 104.903 133.223 107.778 131.275L105.386 127.592C102.225 129.264 99.3502 129.751 96.8043 129.095C93.578 128.248 92.1295 125.792 92.0636 125.707L91.7783 125.199L104.596 116.562C106.044 115.63 107.756 115.292 109.446 115.63C111.136 115.969 112.585 116.922 113.528 118.34L118.774 126.194C118.971 126.491 118.884 126.872 118.576 127.062C118.269 127.253 117.874 127.168 117.676 126.872L112.431 119.018C111.685 117.896 110.544 117.133 109.183 116.879C107.844 116.604 106.461 116.879 105.342 117.62L93.5561 125.559C94.0828 126.216 95.268 127.401 97.1555 127.888C99.4819 128.502 102.203 127.93 105.254 126.216L105.803 125.898L109.556 131.677L109.007 132.016C106.132 133.773 104.135 136.526 103.411 139.743C102.686 142.961 103.323 146.264 105.21 149.016C105.408 149.312 105.32 149.693 105.013 149.905C104.925 149.948 104.815 149.99 104.684 149.99Z" fill="#9A3B82"/>
<path d="M111.729 155.644C105.957 159.306 100.009 161.91 95.5319 162.926L90.5498 156.152C93.3371 152.637 98.3192 148.403 104.223 144.656C110.544 140.634 116.777 137.839 121.101 136.971C123.603 136.484 125.468 136.633 126.368 137.564L126.588 137.818C126.61 137.861 126.632 137.882 126.654 137.924C126.676 137.945 126.676 137.966 126.697 138.009C126.719 138.051 126.741 138.072 126.763 138.115C128.256 141.354 121.693 149.293 111.729 155.644Z" fill="#9A3B82"/>
<path d="M266.547 128.334V146.943C266.547 152.341 258.778 156.702 249.231 156.702C239.662 156.702 231.914 152.341 231.914 146.943V128.334H266.547Z" fill="#E57281"/>
<path d="M236.983 153.844C233.845 152.087 231.892 149.631 231.892 146.943V128.334H266.547V133.5C266.547 138.856 263.167 143.661 258.031 145.673L236.983 153.844Z" fill="#9A3B82"/>
<path d="M276.204 127.233V127.55C276.204 130.768 273.504 133.372 270.168 133.372H266.196C264.857 138.58 259.985 142.454 254.147 142.454H244.314C238.498 142.454 233.604 138.601 232.287 133.372H228.314C224.978 133.372 222.279 130.768 222.279 127.55V127.233C222.279 124.015 224.978 121.411 228.314 121.411H231.914V116.817C231.914 111.905 235.667 107.841 240.561 107.163C241.637 108.899 244.885 113.048 251.513 112.816C254.63 112.71 257.527 112.138 259.919 111.461C262.794 110.656 265.669 112.35 266.393 114.996C266.503 115.589 266.569 116.182 266.569 116.796V121.39H270.168C273.483 121.39 276.204 124.015 276.204 127.233Z" fill="#E57281"/>
<path d="M269.312 121.39H266.547V116.288C266.547 115.843 266.481 115.398 266.371 114.996C265.647 112.35 262.772 110.656 259.897 111.461C257.505 112.138 254.629 112.71 251.491 112.816C244.863 113.049 241.615 108.899 240.539 107.163C235.645 107.841 231.892 111.905 231.892 116.817V121.411H228.446C228.446 121.411 224.495 107.629 227.458 103.734C230.377 99.9017 233.889 101.574 233.889 101.574C233.889 101.574 231.782 90.0998 243.546 90.3115C255.288 90.5232 270.563 103.67 271.683 106.083C273.439 109.788 269.312 121.39 269.312 121.39Z" fill="#9A3B82"/>
<path d="M267.886 128.842C267.578 128.842 267.337 128.609 267.337 128.312C267.337 125.772 269.488 123.697 272.122 123.697C272.429 123.697 272.67 123.93 272.67 124.227C272.67 124.523 272.429 124.756 272.122 124.756C270.08 124.756 268.434 126.344 268.434 128.312C268.434 128.609 268.193 128.842 267.886 128.842Z" fill="#9A3B82"/>
<path d="M230.619 128.842C230.311 128.842 230.07 128.609 230.07 128.312C230.07 126.344 228.424 124.756 226.383 124.756C226.075 124.756 225.834 124.523 225.834 124.227C225.834 123.93 226.075 123.697 226.383 123.697C229.016 123.697 231.167 125.772 231.167 128.312C231.167 128.609 230.926 128.842 230.619 128.842Z" fill="#9A3B82"/>
<path d="M261.016 117.346C260.906 117.346 260.797 117.303 260.687 117.24C260.577 117.155 257.746 115.229 254.125 116.689C253.839 116.795 253.532 116.668 253.4 116.393C253.291 116.118 253.422 115.822 253.708 115.694C257.922 114.022 261.192 116.266 261.323 116.372C261.565 116.541 261.631 116.88 261.433 117.113C261.345 117.261 261.192 117.346 261.016 117.346Z" fill="#9A3B82"/>
<path d="M237.225 117.346C237.049 117.346 236.896 117.261 236.786 117.134C236.61 116.902 236.654 116.563 236.896 116.393C237.027 116.288 240.32 114.043 244.512 115.716C244.797 115.822 244.929 116.139 244.819 116.415C244.709 116.69 244.38 116.817 244.095 116.711C240.451 115.25 237.576 117.24 237.532 117.261C237.444 117.304 237.335 117.346 237.225 117.346Z" fill="#9A3B82"/>
<path d="M250.613 135.171C249.757 135.171 248.769 135.002 247.65 134.599C247.365 134.494 247.211 134.197 247.321 133.922C247.43 133.647 247.738 133.499 248.023 133.604C252.632 135.256 254.146 132.334 254.212 132.207C254.344 131.953 254.673 131.826 254.937 131.953C255.2 132.08 255.332 132.398 255.2 132.652C255.178 132.694 253.927 135.171 250.613 135.171Z" fill="#9A3B82"/>
<path d="M249.054 131.191C248.55 131.191 248.001 131.191 247.54 131.149C247.233 131.128 247.013 130.874 247.035 130.577C247.057 130.281 247.321 130.069 247.628 130.09C248.923 130.175 250.92 130.09 250.942 130.09C251.249 130.069 251.491 130.302 251.513 130.598C251.535 130.895 251.293 131.128 250.986 131.149C250.942 131.149 250.042 131.191 249.054 131.191Z" fill="#9A3B82"/>
<path d="M257.483 125.645C258.089 125.645 258.58 124.848 258.58 123.866C258.58 122.884 258.089 122.088 257.483 122.088C256.877 122.088 256.385 122.884 256.385 123.866C256.385 124.848 256.877 125.645 257.483 125.645Z" fill="#9A3B82"/>
<path d="M241.746 125.645C242.352 125.645 242.843 124.848 242.843 123.866C242.843 122.884 242.352 122.088 241.746 122.088C241.14 122.088 240.648 122.884 240.648 123.866C240.648 124.848 241.14 125.645 241.746 125.645Z" fill="#9A3B82"/>
<path d="M244.358 130.387H237.444C235.82 130.387 234.481 129.095 234.481 127.529V120.86C234.481 119.293 235.82 118.002 237.444 118.002H244.358C245.982 118.002 247.321 119.293 247.321 120.86V127.529C247.343 128.27 247.035 128.989 246.487 129.519C245.916 130.09 245.17 130.387 244.358 130.387ZM237.444 119.06C236.413 119.06 235.579 119.865 235.579 120.86V127.529C235.579 128.524 236.413 129.328 237.444 129.328H244.358C244.863 129.328 245.346 129.138 245.697 128.778C246.048 128.439 246.223 127.994 246.223 127.529V120.86C246.223 119.865 245.389 119.06 244.358 119.06H237.444Z" fill="white"/>
<path d="M261.279 130.387H254.366C252.742 130.387 251.403 129.095 251.403 127.529V120.86C251.403 119.293 252.742 118.002 254.366 118.002H261.279C262.903 118.002 264.242 119.293 264.242 120.86V127.529C264.242 129.095 262.903 130.387 261.279 130.387ZM254.366 119.06C253.334 119.06 252.5 119.865 252.5 120.86V127.529C252.5 128.524 253.334 129.328 254.366 129.328H261.279C262.311 129.328 263.145 128.524 263.145 127.529V120.86C263.145 119.865 262.311 119.06 261.279 119.06H254.366Z" fill="white"/>
<path d="M251.952 122.405H246.794V123.464H251.952V122.405Z" fill="white"/>
<path d="M263.102 216.063H239.113C236.567 216.063 234.504 214.073 234.504 211.617V199.317C234.504 196.861 236.567 194.871 239.113 194.871H263.102C265.648 194.871 267.711 196.861 267.711 199.317V211.617C267.711 214.073 265.648 216.063 263.102 216.063ZM239.113 196.141C237.291 196.141 235.821 197.56 235.821 199.317V211.617C235.821 213.374 237.291 214.792 239.113 214.792H263.102C264.923 214.792 266.394 213.374 266.394 211.617V199.317C266.394 197.56 264.923 196.141 263.102 196.141H239.113Z" fill="#66B0F0"/>
<path d="M251.711 210.474H243.59C242.295 210.474 241.242 209.457 241.242 208.208V202.725C241.242 201.476 242.295 200.46 243.59 200.46H251.711C253.006 200.46 254.059 201.476 254.059 202.725V208.208C254.059 209.457 253.006 210.474 251.711 210.474Z" fill="#66B0F0"/>
<path d="M259.612 210.325L257.11 208.716C256.43 208.272 256.013 207.51 256.013 206.684V204.271C256.013 203.445 256.43 202.683 257.11 202.238L259.612 200.629C260.205 200.248 260.973 200.672 260.973 201.391V209.584C260.995 210.283 260.205 210.706 259.612 210.325Z" fill="#66B0F0"/>
<path d="M583.931 285.354H1.2888C0.91569 285.354 0.630371 285.079 0.630371 284.719C0.630371 284.359 0.91569 284.084 1.2888 284.084H583.931C584.304 284.084 584.59 284.359 584.59 284.719C584.59 285.079 584.304 285.354 583.931 285.354Z" fill="#3FB1B5"/>
<path d="M188.875 288.424V549.794H173.577V500.043C173.577 495.407 169.671 491.639 164.864 491.639H55.3676C50.5611 491.639 46.6544 495.407 46.6544 500.043V549.794H31.3569V288.424H188.875Z" fill="white"/>
<path d="M189.533 550.429H172.919V500.044C172.919 495.767 169.298 492.274 164.864 492.274H55.3678C50.9344 492.274 47.3131 495.767 47.3131 500.044V550.429H30.6987V287.789H189.533V550.429V550.429ZM174.236 549.159H188.217V289.059H32.0156V549.159H45.9962V500.044C45.9962 495.069 50.2101 491.004 55.3678 491.004H164.864C170.022 491.004 174.236 495.069 174.236 500.044V549.159Z" fill="#3FB1B5"/>
<path d="M189.336 288.424V357.778L31.3569 483.255L31.3789 288.424H189.336Z" fill="#D0F0E4"/>
<path d="M165.325 364.32H54.9288C50.0125 364.32 46.0181 360.467 46.0181 355.725V308.325C46.0181 303.583 50.0125 299.729 54.9288 299.729H165.325C170.241 299.729 174.236 303.583 174.236 308.325V355.725C174.236 360.467 170.241 364.32 165.325 364.32ZM54.9288 301C50.7368 301 47.3349 304.281 47.3349 308.325V355.725C47.3349 359.769 50.7368 363.05 54.9288 363.05H165.325C169.517 363.05 172.919 359.769 172.919 355.725V308.325C172.919 304.281 169.517 301 165.325 301H54.9288Z" fill="#3FB1B5"/>
<path d="M138.198 399.59H83.8553L81.5947 384.58H135.959L138.198 399.59Z" fill="#FFCF2D"/>
<path d="M167.19 375.922C160.409 375.922 154.922 381.214 154.922 387.756V399.59H108.678V387.756C108.678 381.214 114.165 375.922 120.947 375.922H167.19Z" fill="white"/>
<path d="M155.58 400.226H108.02V387.756C108.02 380.876 113.814 375.287 120.947 375.287H167.191V376.557C160.782 376.557 155.58 381.575 155.58 387.756V400.226ZM109.337 398.956H154.264V387.756C154.264 382.845 157.227 378.59 161.506 376.557H120.947C114.538 376.557 109.337 381.575 109.337 387.756V398.956Z" fill="#3FB1B5"/>
<path d="M178.713 384.581H132.47C131.043 379.584 126.281 375.922 120.64 375.922H166.884C172.524 375.922 177.265 379.584 178.713 384.581Z" fill="white"/>
<path d="M179.592 385.216H131.988L131.856 384.75C130.473 379.923 125.864 376.557 120.663 376.557V375.287H166.906C172.678 375.287 177.814 379.034 179.372 384.412L179.592 385.216ZM132.953 383.946H177.814C176.168 379.564 171.779 376.557 166.884 376.557H126.325C129.42 378.018 131.878 380.664 132.953 383.946Z" fill="#3FB1B5"/>
<path d="M165.325 463.546H54.9288C50.0125 463.546 46.0181 459.693 46.0181 454.951V407.55C46.0181 402.808 50.0125 398.955 54.9288 398.955H165.325C170.241 398.955 174.236 402.808 174.236 407.55V454.951C174.236 459.693 170.241 463.546 165.325 463.546ZM54.9288 400.225C50.7368 400.225 47.3349 403.507 47.3349 407.55V454.951C47.3349 458.994 50.7368 462.276 54.9288 462.276H165.325C169.517 462.276 172.919 458.994 172.919 454.951V407.55C172.919 403.507 169.517 400.225 165.325 400.225H54.9288Z" fill="#3FB1B5"/>
<path d="M132.755 331.718C132.382 331.718 132.096 331.443 132.096 331.083C132.096 327.653 129.221 324.88 125.666 324.88H94.6098C91.0543 324.88 88.1792 327.653 88.1792 331.083C88.1792 331.443 87.8938 331.718 87.5207 331.718C87.1476 331.718 86.8623 331.443 86.8623 331.083C86.8623 326.954 90.33 323.609 94.6098 323.609H125.666C129.945 323.609 133.413 326.954 133.413 331.083C133.413 331.443 133.128 331.718 132.755 331.718Z" fill="#3FB1B5"/>
<path d="M132.755 430.943C132.382 430.943 132.096 430.668 132.096 430.308C132.096 426.878 129.221 424.105 125.666 424.105H94.6098C91.0543 424.105 88.1792 426.878 88.1792 430.308C88.1792 430.668 87.8938 430.943 87.5207 430.943C87.1476 430.943 86.8623 430.668 86.8623 430.308C86.8623 426.18 90.33 422.835 94.6098 422.835H125.666C129.945 422.835 133.413 426.18 133.413 430.308C133.413 430.668 133.128 430.943 132.755 430.943Z" fill="#3FB1B5"/>
<path d="M560.732 288.424H544.425V550.365H560.732V288.424Z" fill="white"/>
<path d="M561.391 551.001H543.767V287.789H561.391V551.001ZM545.084 549.731H560.074V289.059H545.084V549.731Z" fill="#3FB1B5"/>
<path d="M623.92 551.001H283.601C283.228 551.001 282.942 550.725 282.942 550.366C282.942 550.006 283.228 549.73 283.601 549.73H623.92C624.293 549.73 624.579 550.006 624.579 550.366C624.579 550.725 624.293 551.001 623.92 551.001Z" fill="#3FB1B5"/>
<path d="M77.6659 248.792H67.8114C67.8114 248.792 53.743 192.246 41.3865 190.404C29.0301 188.563 28.3936 210.326 28.3936 210.326C28.3936 210.326 28.613 177.236 59.4933 181.767C90.3955 186.297 77.6659 248.792 77.6659 248.792Z" fill="white"/>
<path d="M78.2153 249.428H67.3074L67.1757 248.941C67.1318 248.792 63.5982 234.651 58.6161 220.488C50.3638 197.052 44.6355 191.526 41.2995 191.04C39.0169 190.701 36.9977 191.209 35.3297 192.564C29.5136 197.221 29.0747 210.22 29.0747 210.347L27.7578 210.326C27.7578 210.156 27.8017 206.282 29.0966 201.328C30.3037 196.734 32.8497 190.32 38.1829 185.916C43.604 181.449 50.8028 179.84 59.6257 181.153C65.3321 181.979 69.963 184.815 73.4088 189.536C78.9396 197.137 81.4636 209.437 80.871 226.14C80.432 238.525 78.3689 248.814 78.347 248.919L78.2153 249.428ZM68.3389 248.157H77.1399C77.5569 245.934 79.181 236.789 79.5541 226.077C79.9492 214.793 79.0054 199.444 72.3334 190.277C69.1071 185.832 64.7614 183.185 59.4282 182.423C51.0222 181.195 44.1526 182.698 39.0388 186.911C37.5025 188.182 36.1857 189.642 35.0883 191.188C36.9538 189.918 39.1047 189.473 41.5189 189.833C46.8961 190.637 53.0853 200.841 59.8891 220.149C64.3444 232.83 67.6585 245.532 68.3389 248.157Z" fill="#3FB1B5"/>
<path d="M73.3424 248.581C72.9913 248.581 72.684 248.305 72.684 247.945C71.9597 205.795 62.6978 190.912 55.0601 185.874C49.2659 182.042 44.196 183.778 44.1521 183.799C43.801 183.926 43.4278 183.757 43.2962 183.418C43.1645 183.079 43.3401 182.719 43.6912 182.592C43.9327 182.508 49.4415 180.624 55.8063 184.815C60.7225 188.076 64.739 194.046 67.7238 202.598C71.5647 213.607 73.6716 228.85 74.0008 247.924C74.0008 248.284 73.7155 248.581 73.3424 248.581Z" fill="#3FB1B5"/>
<path d="M104.508 247.945H58.2207V284.295H104.508V247.945Z" fill="#FE5244"/>
<path d="M114.254 266.131C111.313 267.358 107.801 267.21 104.531 265.834C102.117 264.818 99.8341 263.146 97.9905 260.859C95.4446 257.684 93.7326 253.344 93.7326 247.945C93.7326 234.862 82.9344 226.648 78.501 243.965C78.1937 245.172 77.9084 246.484 77.667 247.945V247.903V247.818C77.667 247.776 77.667 247.712 77.689 247.649V247.564C77.7768 246.484 78.106 243.288 79.1156 239.435C79.8618 236.577 80.9811 233.401 82.6491 230.458C83.4831 228.998 84.4488 227.6 85.5901 226.351C88.5311 223.091 92.5694 220.805 98.0782 220.805C108.218 220.805 115.636 232.321 118.468 243.796C120.948 253.767 119.938 263.738 114.254 266.131Z" fill="white"/>
<path d="M109.93 267.592C108.064 267.592 106.111 267.189 104.267 266.406C101.655 265.305 99.307 263.527 97.4634 261.241C94.5883 257.663 93.0739 253.048 93.0739 247.946C93.0739 241.975 90.3524 235.243 86.2921 234.778C83.3511 234.439 80.7613 237.847 79.1372 244.114C78.808 245.426 78.5446 246.696 78.3032 248.051L76.9863 247.946V247.818C76.9863 247.776 76.9863 247.67 77.0083 247.564V247.501C77.0961 246.315 77.4472 243.14 78.4568 239.266C79.3567 235.836 80.5638 232.766 82.0562 230.141C83 228.511 83.9876 227.114 85.085 225.928C88.5308 222.096 92.8983 220.17 98.0779 220.17C108.613 220.17 116.229 231.962 119.104 243.648C120.377 248.792 120.728 253.852 120.069 257.896C119.345 262.447 117.414 265.475 114.517 266.703C113.112 267.295 111.554 267.592 109.93 267.592ZM85.897 233.486C86.0946 233.486 86.2701 233.507 86.4457 233.528C90.8352 234.037 94.3908 240.515 94.3908 247.967C94.3908 252.794 95.8173 257.133 98.5169 260.5C100.229 262.617 102.402 264.268 104.794 265.284C107.932 266.597 111.29 266.703 113.99 265.58C118.906 263.506 120.464 254.635 117.831 243.987C116.36 237.995 113.749 232.47 110.5 228.426C106.835 223.875 102.555 221.482 98.0779 221.482C93.3153 221.482 89.277 223.282 86.0946 226.817C85.063 227.961 84.1193 229.252 83.2414 230.819C82.144 232.766 81.2003 234.947 80.4321 237.36C80.8052 236.768 81.1783 236.238 81.5734 235.773C83.1317 233.931 84.7119 233.486 85.897 233.486Z" fill="#3FB1B5"/>
<path d="M111.904 267.168C111.575 267.168 111.29 266.935 111.246 266.597C108.042 237.572 100.733 228.596 95.1804 226.182C90.2203 224.023 86.0283 226.839 85.9844 226.86C85.6991 227.072 85.2821 226.987 85.0626 226.712C84.8431 226.436 84.9309 226.034 85.2162 225.823C85.4137 225.696 90.0666 222.562 95.7072 225.018C99.4382 226.648 102.686 230.332 105.342 236.005C108.678 243.098 111.092 253.344 112.541 266.449C112.585 266.787 112.321 267.105 111.948 267.147C111.948 267.168 111.926 267.168 111.904 267.168Z" fill="#3FB1B5"/>
<path d="M27.7354 210.325C27.7354 213.819 27.3184 227.177 40.5308 227.791C53.7433 228.405 55.0601 209.161 55.0601 209.161C55.0601 209.161 48.5636 192.14 41.3868 190.404C29.2498 187.461 27.7354 210.325 27.7354 210.325Z" fill="#3FB1B5"/>
<path d="M93.7317 247.945H77.666C81.3752 225.526 93.7317 233.952 93.7317 247.945Z" fill="#3FB1B5"/>
<path opacity="0.4" d="M366.563 83.2818V223.028C366.563 230.543 360.242 236.619 352.472 236.619H186.658C176.255 250.443 154.812 250.507 144.321 236.619L144.299 236.598C140.129 236.323 136.442 234.269 134.072 231.242L137.891 228.066L235.338 146.941L328.132 69.6904H352.472C360.242 69.6904 366.563 75.7875 366.563 83.2818Z" fill="white"/>
<path opacity="0.4" d="M114.253 266.766C111.334 268.036 107.801 267.845 104.53 266.469V284.295H70.3579L98.0119 261.283L104.552 255.842L109.534 251.692L119.169 243.796C121.979 255.355 120.42 264.035 114.253 266.766Z" fill="white"/>
<path d="M405.256 360.826V478.661H377.031L359.056 430.244L333.312 360.826H405.256Z" fill="#A0505A"/>
<path d="M333.312 360.826H405.256V398.658L341.871 383.881L333.312 360.826Z" fill="#73325A"/>
<path d="M405.914 479.296H376.57L357.849 428.868L359.385 429.673C359.429 429.694 363.073 431.578 370.491 432.509C377.339 433.377 388.927 433.568 405.102 429.609L405.914 429.419V479.296V479.296ZM377.492 478.026H404.597V431.049C388.576 434.881 377.075 434.648 370.206 433.78C365.224 433.145 361.931 432.107 360.197 431.43L377.492 478.026Z" fill="white"/>
<path d="M373.739 442.248C371.61 442.248 369.876 440.575 369.876 438.522C369.876 436.468 371.61 434.796 373.739 434.796C375.868 434.796 377.602 436.468 377.602 438.522C377.602 440.575 375.868 442.248 373.739 442.248ZM373.739 436.066C372.335 436.066 371.193 437.167 371.193 438.522C371.193 439.877 372.335 440.978 373.739 440.978C375.144 440.978 376.285 439.877 376.285 438.522C376.285 437.167 375.144 436.066 373.739 436.066Z" fill="white"/>
<path d="M389.015 452.22C386.886 452.22 385.152 450.547 385.152 448.494C385.152 446.44 386.886 444.768 389.015 444.768C391.144 444.768 392.878 446.44 392.878 448.494C392.878 450.547 391.144 452.22 389.015 452.22ZM389.015 446.038C387.611 446.038 386.469 447.139 386.469 448.494C386.469 449.849 387.611 450.949 389.015 450.949C390.42 450.949 391.561 449.849 391.561 448.494C391.561 447.139 390.42 446.038 389.015 446.038Z" fill="white"/>
<path d="M400.383 441.147C398.254 441.147 396.521 439.475 396.521 437.421C396.521 435.368 398.254 433.695 400.383 433.695C402.512 433.695 404.246 435.368 404.246 437.421C404.246 439.475 402.512 441.147 400.383 441.147ZM400.383 434.966C398.979 434.966 397.837 436.066 397.837 437.421C397.837 438.776 398.979 439.877 400.383 439.877C401.788 439.877 402.929 438.776 402.929 437.421C402.929 436.066 401.788 434.966 400.383 434.966Z" fill="white"/>
<path d="M395.884 463.82C393.755 463.82 392.021 462.148 392.021 460.094C392.021 458.041 393.755 456.368 395.884 456.368C398.013 456.368 399.747 458.041 399.747 460.094C399.747 462.148 398.013 463.82 395.884 463.82ZM395.884 457.638C394.48 457.638 393.338 458.739 393.338 460.094C393.338 461.449 394.48 462.55 395.884 462.55C397.289 462.55 398.43 461.449 398.43 460.094C398.43 458.739 397.289 457.638 395.884 457.638Z" fill="white"/>
<path d="M376.944 458.189C374.815 458.189 373.081 456.517 373.081 454.463C373.081 452.41 374.815 450.737 376.944 450.737C379.073 450.737 380.807 452.41 380.807 454.463C380.807 456.517 379.073 458.189 376.944 458.189ZM376.944 452.008C375.539 452.008 374.398 453.108 374.398 454.463C374.398 455.818 375.539 456.919 376.944 456.919C378.349 456.919 379.49 455.818 379.49 454.463C379.49 453.108 378.349 452.008 376.944 452.008Z" fill="white"/>
<path d="M382.167 475.126C380.038 475.126 378.304 473.453 378.304 471.4C378.304 469.346 380.038 467.674 382.167 467.674C384.296 467.674 386.03 469.346 386.03 471.4C386.03 473.453 384.296 475.126 382.167 475.126ZM382.167 468.944C380.762 468.944 379.621 470.045 379.621 471.4C379.621 472.755 380.762 473.856 382.167 473.856C383.572 473.856 384.713 472.755 384.713 471.4C384.713 470.045 383.572 468.944 382.167 468.944Z" fill="white"/>
<path d="M418.6 500.636L399.242 539.399C396.499 545.644 390.156 549.709 383.111 549.709H358.419C352.099 549.709 348.258 543.527 350.672 537.896L375.495 480.143C376.877 476.629 379.314 473.707 382.364 471.653C385.437 469.6 389.124 468.436 393.009 468.436C398.408 468.436 403.763 471.971 407.319 475.888L415.922 484.843C419.895 489.204 420.926 495.322 418.6 500.636Z" fill="#66B0F0"/>
<path d="M418.6 500.635L399.242 539.398C396.499 545.644 390.156 549.708 383.111 549.708H356.861C354.425 549.708 353.043 548.248 352.23 546.236H358.069C365.114 546.236 371.457 542.172 374.2 535.926L396.521 491.024C398.606 486.832 403.017 484.144 407.846 484.144C414.145 484.144 418.929 488.589 419.807 494.221C419.895 496.38 419.5 498.561 418.6 500.635Z" fill="white"/>
<path d="M383.11 550.344H356.861C354.425 550.344 352.647 549.031 351.616 546.47C351.528 546.279 351.572 546.046 351.681 545.877C351.813 545.707 352.011 545.602 352.23 545.602H358.068C364.85 545.602 370.951 541.706 373.585 535.673C373.585 535.673 373.585 535.652 373.607 535.652L395.928 490.749C398.123 486.346 402.797 483.509 407.845 483.509C414.188 483.509 419.5 487.976 420.465 494.136C420.465 494.157 420.465 494.179 420.465 494.2C420.553 496.486 420.136 498.752 419.214 500.89C419.214 500.89 419.214 500.911 419.192 500.911L399.834 539.653C396.981 546.152 390.419 550.344 383.11 550.344ZM353.262 546.872C354.096 548.375 355.259 549.074 356.861 549.074H383.11C389.892 549.074 395.994 545.178 398.627 539.145C398.627 539.145 398.627 539.123 398.649 539.123L418.007 500.382C418.841 498.434 419.236 496.38 419.148 494.285C418.27 488.78 413.53 484.779 407.845 484.779C403.302 484.779 399.088 487.341 397.113 491.3L374.792 536.181C371.939 542.68 365.377 546.872 358.068 546.872H353.262Z" fill="#66B0F0"/>
<path d="M414.145 482.98C411.818 481.752 409.009 480.863 406.551 480.863C401.832 480.863 397.465 483.509 395.423 487.616L372.313 534.107C369.372 540.818 362.568 545.158 354.996 545.158H350.738C350.519 544.755 350.365 544.332 350.211 543.887H354.996C362.041 543.887 368.362 539.844 371.106 533.599L371.127 533.577L394.26 487.066C396.521 482.514 401.349 479.593 406.573 479.593C408.241 479.593 410.238 480.122 411.95 480.694L414.145 482.98Z" fill="white"/>
<path d="M333.311 360.826L327.803 430.244L325.344 461.343C325.344 461.343 309.301 478.576 291.04 467.948L282.591 430.265L263.255 344.038C258.031 320.729 274.536 298.056 299.051 294.901L333.311 360.826Z" fill="#A0505A"/>
<path d="M303.397 472.881C299.468 472.881 295.144 471.928 290.711 469.345L290.47 469.197L281.734 429.354L282.788 429.672C303.572 435.684 327.407 429.714 327.649 429.651L328.548 429.418L326.003 462.465L325.849 462.634C325.673 462.804 321.679 467.059 315.336 470.065C312.154 471.547 308.028 472.881 303.397 472.881ZM291.633 468.393C298.919 472.542 306.689 472.711 314.722 468.922C320.165 466.339 323.94 462.698 324.708 461.915L327.078 431.069C325.081 431.514 319.901 432.594 313.207 433.186C305.504 433.885 294.201 434.054 283.446 431.175L291.633 468.393Z" fill="white"/>
<path d="M302.584 450.08C300.455 450.08 298.721 448.407 298.721 446.354C298.721 444.3 300.455 442.628 302.584 442.628C304.713 442.628 306.447 444.3 306.447 446.354C306.447 448.407 304.713 450.08 302.584 450.08ZM302.584 443.898C301.179 443.898 300.038 444.999 300.038 446.354C300.038 447.709 301.179 448.81 302.584 448.81C303.989 448.81 305.13 447.709 305.13 446.354C305.13 444.999 303.989 443.898 302.584 443.898Z" fill="white"/>
<path d="M322.952 445.339C320.823 445.339 319.089 443.666 319.089 441.613C319.089 439.559 320.823 437.887 322.952 437.887C325.081 437.887 326.814 439.559 326.814 441.613C326.814 443.666 325.081 445.339 322.952 445.339ZM322.952 439.157C321.547 439.157 320.406 440.258 320.406 441.613C320.406 442.968 321.547 444.068 322.952 444.068C324.356 444.068 325.498 442.968 325.498 441.613C325.498 440.258 324.356 439.157 322.952 439.157Z" fill="white"/>
<path d="M290.294 441.146C288.165 441.146 286.431 439.474 286.431 437.42C286.431 435.367 288.165 433.694 290.294 433.694C292.423 433.694 294.157 435.367 294.157 437.42C294.157 439.474 292.423 441.146 290.294 441.146ZM290.294 434.965C288.889 434.965 287.748 436.065 287.748 437.42C287.748 438.775 288.889 439.876 290.294 439.876C291.699 439.876 292.84 438.775 292.84 437.42C292.84 436.065 291.699 434.965 290.294 434.965Z" fill="white"/>
<path d="M299.38 466.911C297.251 466.911 295.518 465.238 295.518 463.185C295.518 461.131 297.251 459.459 299.38 459.459C301.509 459.459 303.243 461.131 303.243 463.185C303.243 465.238 301.509 466.911 299.38 466.911ZM299.38 460.729C297.976 460.729 296.834 461.83 296.834 463.185C296.834 464.54 297.976 465.641 299.38 465.641C300.785 465.641 301.926 464.54 301.926 463.185C301.926 461.83 300.785 460.729 299.38 460.729Z" fill="white"/>
<path d="M314.326 460.729C312.197 460.729 310.463 459.057 310.463 457.003C310.463 454.95 312.197 453.277 314.326 453.277C316.455 453.277 318.189 454.95 318.189 457.003C318.189 459.057 316.455 460.729 314.326 460.729ZM314.326 454.548C312.921 454.548 311.78 455.648 311.78 457.003C311.78 458.358 312.921 459.459 314.326 459.459C315.731 459.459 316.872 458.358 316.872 457.003C316.872 455.648 315.731 454.548 314.326 454.548Z" fill="white"/>
<path d="M346.502 468.753L325.345 550.365H318.672C318.365 550.365 318.08 550.344 317.773 550.323C312.725 549.878 308.467 545.771 307.391 540.923L291.019 467.906C309.279 478.555 325.345 461.322 325.345 461.322L346.502 468.753Z" fill="#66B0F0"/>
<path d="M347.577 510.629C352.032 487.934 353.262 470.595 345.58 469.198C337.898 467.801 324.225 482.853 319.77 505.548C315.314 528.242 317.641 548.312 325.322 549.709C333.004 551.128 343.122 533.345 347.577 510.629Z" fill="white"/>
<path d="M326.2 550.429C325.871 550.429 325.52 550.408 325.191 550.344C321.196 549.625 318.409 544.417 317.333 535.694C316.302 527.29 316.938 516.535 319.111 505.442C321.174 494.963 325.366 485.203 330.919 477.963C336.011 471.336 341.542 467.822 345.69 468.584C349.684 469.304 351.659 473.665 351.769 481.922C351.857 488.654 350.694 498.075 348.214 510.756C346.458 519.69 343.802 528.094 340.532 535.059C337.306 541.94 333.772 546.767 330.326 549.032C328.922 549.942 327.539 550.429 326.2 550.429ZM344.548 469.749C341.037 469.749 336.318 473.093 331.994 478.725C326.551 485.817 322.447 495.386 320.406 505.675C318.255 516.662 317.619 527.269 318.628 535.546C319.616 543.549 322.096 548.481 325.432 549.095C326.705 549.328 328.11 548.947 329.602 547.973C336.34 543.549 343.473 528.158 346.919 510.523C349.399 497.948 350.54 488.59 350.452 481.943C350.365 474.491 348.675 470.426 345.448 469.833C345.163 469.77 344.856 469.749 344.548 469.749Z" fill="#66B0F0"/>
<path d="M316.697 505.188C314.392 516.958 313.712 528.327 314.809 537.218C315.599 543.612 317.267 548.164 319.55 550.365H318.672C318.365 550.365 318.08 550.344 317.772 550.323C315.709 547.698 314.239 543.294 313.492 537.367C312.373 528.369 313.054 516.852 315.402 504.955C317.619 493.692 322.096 483.128 328.044 475.189C331.599 470.447 335.33 467.123 338.732 465.62L340.707 466.255C332.872 468.499 320.977 483.403 316.697 505.188Z" fill="white"/>
<path d="M299.052 294.881L399.177 284.931L499.258 312.008L498.402 324.837C497.041 345.076 478.956 360.827 457.93 360.827H333.334L299.052 294.881Z" fill="#FE5244"/>
<path d="M453.519 352.572H328.922C328.549 352.572 328.264 352.296 328.264 351.936C328.264 351.577 328.549 351.301 328.922 351.301H453.519C463.044 351.301 473.03 346.453 480.931 337.964C488.415 329.919 492.893 319.863 492.893 311.077C492.893 310.718 493.178 310.442 493.551 310.442C493.924 310.442 494.209 310.718 494.209 311.077C494.209 320.181 489.6 330.554 481.919 338.832C473.754 347.554 463.417 352.572 453.519 352.572Z" fill="white"/>
<path d="M443.708 341.986H323.874C323.501 341.986 323.216 341.711 323.216 341.351C323.216 340.991 323.501 340.716 323.874 340.716H443.708C452.026 340.716 460.63 336.947 467.894 330.088C474.72 323.652 479.505 315.353 481.019 307.309C481.085 306.97 481.436 306.737 481.787 306.8C482.138 306.864 482.38 307.203 482.314 307.541C479.219 323.822 462.605 341.986 443.708 341.986Z" fill="white"/>
<path d="M433.151 331.188H317.509C317.136 331.188 316.851 330.913 316.851 330.553C316.851 330.193 317.136 329.918 317.509 329.918H433.151C448.953 329.918 462.67 316.2 467.565 303.307C467.696 302.968 468.069 302.799 468.399 302.926C468.75 303.053 468.925 303.413 468.794 303.73C466.072 310.907 461.156 317.661 454.923 322.741C448.141 328.267 440.613 331.188 433.151 331.188Z" fill="white"/>
<path d="M427.445 319.545H311.803C311.43 319.545 311.145 319.27 311.145 318.91C311.145 318.55 311.43 318.275 311.803 318.275H427.445C438.331 318.275 449.743 311.437 457.249 300.45C457.447 300.153 457.864 300.068 458.171 300.259C458.479 300.449 458.566 300.852 458.369 301.148C450.599 312.495 438.77 319.545 427.445 319.545Z" fill="white"/>
<path d="M421.958 308.96H306.316C305.943 308.96 305.658 308.684 305.658 308.324C305.658 307.965 305.943 307.689 306.316 307.689H421.958C430.342 307.689 438.792 303.963 445.749 297.21C446.013 296.956 446.43 296.956 446.671 297.21C446.934 297.464 446.934 297.866 446.671 298.099C439.472 305.107 430.693 308.96 421.958 308.96Z" fill="white"/>
<path d="M416.032 298.163H300.39C300.017 298.163 299.732 297.888 299.732 297.528C299.732 297.168 300.017 296.893 300.39 296.893H416.032C420.97 296.893 425.931 295.538 430.803 292.891C431.11 292.722 431.527 292.828 431.703 293.124C431.878 293.421 431.769 293.823 431.461 293.992C426.391 296.766 421.19 298.163 416.032 298.163Z" fill="white"/>
<path d="M333.092 361.463C332.851 361.463 332.61 361.336 332.5 361.103L298.24 295.157C298.086 294.839 298.218 294.458 298.525 294.31C298.854 294.162 299.249 294.289 299.403 294.585L333.663 360.531C333.817 360.849 333.685 361.23 333.378 361.378C333.29 361.442 333.202 361.463 333.092 361.463Z" fill="white"/>
<path d="M504.744 223.643C495.307 226.225 486.023 225.463 485.035 222.69C484.114 220.044 488.284 215.513 496.733 212.507C497.15 212.359 497.589 212.211 498.028 212.062C500.574 211.237 503.12 210.707 505.513 210.432C512.602 209.564 518.374 210.792 519.098 212.867C520.086 215.64 514.73 220.912 504.744 223.643Z" fill="white"/>
<path d="M493.507 225.865C488.722 225.865 485.101 224.827 484.399 222.901C483.214 219.514 488.415 214.793 496.492 211.913C496.909 211.765 497.348 211.617 497.787 211.469H497.809C500.289 210.664 502.857 210.114 505.425 209.818C512.689 208.928 518.835 210.156 519.712 212.676C520.02 213.501 519.866 214.517 519.295 215.576C517.452 218.963 511.811 222.393 504.92 224.277C500.947 225.335 496.931 225.865 493.507 225.865ZM510.012 210.791C508.673 210.791 507.202 210.876 505.6 211.067C503.12 211.363 500.64 211.892 498.248 212.676C497.809 212.824 497.37 212.972 496.975 213.12C493.156 214.475 489.908 216.275 487.845 218.201C486.111 219.81 485.299 221.419 485.672 222.499C486.396 224.552 494.846 225.695 504.569 223.049C509.946 221.588 516.223 218.519 518.132 214.983C518.527 214.242 518.659 213.586 518.483 213.078C518.088 211.956 514.972 210.791 510.012 210.791Z" fill="#3FB1B5"/>
<path d="M498.774 285.374H495.153L485.65 223.493V223.451L485.408 221.906C485.869 219.09 490.434 215.11 498.489 212.527C502.505 211.236 506.5 210.664 509.902 210.601L513.369 219.767L513.699 220.635L524.672 249.66C531.257 266.999 517.934 285.374 498.774 285.374Z" fill="#A0505A"/>
<path d="M513.589 220.424C511.284 221.821 508.3 223.112 504.744 224.086C496.58 226.309 488.305 225.399 485.65 223.493V223.451L485.408 221.906C485.869 219.09 490.434 215.11 498.489 212.527C502.505 211.236 506.5 210.664 509.902 210.601L513.589 220.424Z" fill="#73325A"/>
<path d="M381.223 234.46L369.701 262.109C364.016 275.764 350.277 284.719 335.002 284.719H180.118V271.043C180.118 267.74 182.225 264.776 185.429 263.612L201.341 257.79C202.79 257.261 204.304 256.985 205.84 256.985H223.903L326.135 247.035L343.781 208.061L381.223 234.46Z" fill="#A0505A"/>
<path d="M180.776 276.822C180.403 276.822 180.118 276.547 180.118 276.187C180.118 273.414 181.852 270.979 184.551 269.984L196.556 265.602C196.886 265.475 197.281 265.644 197.412 265.962C197.544 266.279 197.368 266.661 197.039 266.788L185.034 271.17C182.861 271.974 181.435 273.943 181.435 276.187C181.435 276.547 181.149 276.822 180.776 276.822Z" fill="#73325A"/>
<path d="M180.776 283.808C180.403 283.808 180.118 283.532 180.118 283.173C180.118 280.399 181.852 277.965 184.551 276.97L196.556 272.587C196.886 272.46 197.281 272.63 197.412 272.947C197.544 273.265 197.368 273.646 197.039 273.773L185.034 278.155C182.861 278.96 181.435 280.928 181.435 283.173C181.435 283.532 181.149 283.808 180.776 283.808Z" fill="#73325A"/>
<path d="M184.792 284.719C184.529 284.719 184.265 284.55 184.178 284.296C184.046 283.957 184.221 283.597 184.573 283.491L196.578 279.32C196.929 279.193 197.302 279.363 197.412 279.702C197.544 280.04 197.368 280.4 197.017 280.506L185.012 284.677C184.946 284.698 184.858 284.719 184.792 284.719Z" fill="#73325A"/>
<path d="M195.547 260.139C195.547 260.139 206.784 232.47 210.383 232.936C213.983 233.401 200.419 258.361 200.419 258.361L195.547 260.139Z" fill="#FE5244"/>
<path d="M343.78 208.082L341.19 213.777L374.353 250.931L381.223 234.46L343.78 208.082Z" fill="#73325A"/>
<path d="M485.65 223.515L499.258 312.008L399.198 284.931L381.223 234.439L334.826 201.731L351.111 183.016C365.641 166.313 387.083 156.659 409.689 156.659H441.843C469.804 156.659 495.548 171.394 508.958 195.062L519.383 212.464C519.383 212.464 516.245 208.019 499.323 212.486C484.421 216.444 485.65 223.515 485.65 223.515Z" fill="#3FB1B5"/>
<path d="M381.223 234.672C381.179 234.672 381.114 234.672 381.07 234.65C380.718 234.566 380.499 234.227 380.587 233.888L385.788 212.125C385.876 211.786 386.227 211.575 386.578 211.659C386.93 211.744 387.149 212.083 387.061 212.421L381.86 234.185C381.794 234.481 381.531 234.672 381.223 234.672Z" fill="white"/>
<path d="M496.734 291.98C496.426 291.98 496.141 291.769 496.075 291.451L479.153 189.981C479.088 189.642 479.329 189.304 479.702 189.261C480.053 189.198 480.404 189.431 480.448 189.791L497.37 291.26C497.436 291.599 497.194 291.938 496.821 291.98C496.799 291.98 496.777 291.98 496.734 291.98Z" fill="white"/>
<path d="M499.038 312.643C498.972 312.643 498.929 312.643 498.863 312.622L399.001 285.142C398.65 285.037 398.453 284.698 398.54 284.359C398.65 284.02 399.001 283.83 399.352 283.915L499.214 311.394C499.565 311.5 499.763 311.838 499.675 312.177C499.587 312.452 499.324 312.643 499.038 312.643Z" fill="white"/>
<path d="M404.576 142.517V156.744L430.605 156.532V131.424L404.576 142.517Z" fill="#A0505A"/>
<path d="M432.712 127.041V127.422C432.712 131.233 429.727 134.324 425.777 134.324H424.241C423.253 138.092 414.474 142.496 408.241 142.496H400.976C393.031 142.496 386.952 135.615 388.246 128.036L388.598 125.983L386.447 124.818C385.218 124.141 384.867 122.596 385.723 121.495L390.375 115.567L391.385 109.724C392.197 104.918 395.467 101.002 399.813 99.0752C401.525 117.684 418.556 119.886 423.055 120.14H425.557C429.508 120.14 432.712 123.231 432.712 127.041Z" fill="#A0505A"/>
<path d="M421.19 129.497C420.817 129.497 420.531 129.222 420.531 128.862C420.531 125.517 423.363 122.786 426.83 122.786C427.203 122.786 427.489 123.061 427.489 123.421C427.489 123.781 427.203 124.056 426.83 124.056C424.087 124.056 421.848 126.216 421.848 128.862C421.848 129.222 421.563 129.497 421.19 129.497Z" fill="#73325A"/>
<path d="M397.399 120.33C398.017 120.33 398.518 119.212 398.518 117.832C398.518 116.452 398.017 115.334 397.399 115.334C396.78 115.334 396.279 116.452 396.279 117.832C396.279 119.212 396.78 120.33 397.399 120.33Z" fill="#73325A"/>
<path d="M401.964 114.678C401.766 114.678 401.569 114.593 401.437 114.424C398.518 110.529 395.796 110.74 395.752 110.74C395.379 110.783 395.072 110.529 395.028 110.169C394.984 109.83 395.248 109.512 395.621 109.47C395.752 109.449 399.132 109.195 402.49 113.662C402.71 113.937 402.644 114.339 402.337 114.551C402.227 114.636 402.095 114.678 401.964 114.678Z" fill="#73325A"/>
<path d="M423.055 120.14H425.557C429.508 120.14 432.712 123.231 432.712 127.042V127.423C432.712 131.233 429.727 134.324 425.777 134.324L424.087 135.467C416.976 139.871 407.143 157.188 409.557 169.446C412.279 183.228 424.723 186.298 436.224 184.181C447.724 182.064 456.108 175.607 453.387 161.803C453.08 160.173 452.575 158.543 451.938 156.934C452.136 156.998 452.311 157.061 452.509 157.125C466.336 160.766 482.577 161.19 487.054 150.774C491.532 140.358 490.522 130.048 477.068 124.671C469.255 121.537 458.632 121.559 450.402 123.718C454.55 109.809 447.176 94.3334 433.634 92.7879C412.367 90.3533 400.164 98.8215 399.835 99.0544C399.813 101.51 401.547 118.933 423.055 120.14Z" fill="#73325A"/>
<path d="M452.509 157.781C452.202 157.781 451.916 157.57 451.872 157.273C449.546 145.524 439.582 139.045 439.472 138.982C439.296 138.876 439.187 138.664 439.187 138.453C439.187 138.241 439.296 138.05 439.472 137.923C446.276 133.287 449.217 126.597 450.358 123.041C450.468 122.702 450.841 122.511 451.17 122.617C451.521 122.723 451.719 123.083 451.609 123.4C450.468 126.999 447.571 133.605 440.964 138.431C443.444 140.231 451.104 146.54 453.167 157.019C453.233 157.358 452.992 157.697 452.64 157.76C452.597 157.781 452.553 157.781 452.509 157.781Z" fill="white"/>
<path d="M456.921 123.4H451.105C450.732 123.4 450.446 123.125 450.446 122.765V117.155C450.446 113.874 453.212 111.206 456.614 111.206H456.921C460.323 111.206 463.088 113.874 463.088 117.155V117.451C463.11 119.018 462.474 120.521 461.31 121.643C460.147 122.765 458.589 123.4 456.921 123.4ZM451.763 122.13H456.921C458.238 122.13 459.445 121.643 460.367 120.733C461.267 119.844 461.771 118.679 461.771 117.451V117.155C461.771 114.572 459.599 112.476 456.921 112.476H456.614C453.936 112.476 451.763 114.572 451.763 117.155V122.13Z" fill="#FE5244"/>
<path d="M460.169 131.995C457.82 131.995 455.56 130.894 454.221 128.862L450.49 123.146C450.292 122.85 450.38 122.447 450.687 122.278L456.613 118.679C458.193 117.726 460.081 117.409 461.903 117.811C463.724 118.213 465.282 119.272 466.292 120.796L466.643 121.325C467.653 122.85 467.96 124.67 467.543 126.427C467.126 128.185 466.029 129.688 464.448 130.662L463.9 131C462.758 131.657 461.464 131.995 460.169 131.995ZM451.96 122.998L455.34 128.185C457.008 130.725 460.542 131.487 463.219 129.878L463.768 129.54C465.063 128.756 465.941 127.55 466.27 126.11C466.599 124.67 466.336 123.21 465.524 121.961L465.173 121.431C464.361 120.182 463.11 119.335 461.617 119.018C460.125 118.7 458.61 118.954 457.315 119.738L451.96 122.998Z" fill="#FE5244"/>
<path d="M424.218 148.932C424.065 148.932 423.911 148.932 423.758 148.911C422.111 148.784 420.619 148.064 419.544 146.858L419.346 146.625C418.271 145.439 417.744 143.915 417.854 142.348C417.963 140.76 418.71 139.3 419.961 138.262L424.087 134.452C424.218 134.325 424.394 134.261 424.57 134.282C424.745 134.282 424.921 134.367 425.03 134.494L429.091 138.919C430.166 140.125 430.715 141.671 430.583 143.259C430.452 144.846 429.705 146.286 428.454 147.323L428.191 147.514C427.116 148.424 425.711 148.932 424.218 148.932ZM424.526 135.807L420.882 139.173L420.86 139.194C419.873 140.02 419.28 141.163 419.192 142.433C419.105 143.682 419.522 144.868 420.356 145.799C420.356 145.799 420.356 145.82 420.378 145.82L420.575 146.053C421.409 146.985 422.572 147.556 423.867 147.662C425.162 147.747 426.413 147.344 427.401 146.54L427.664 146.328C428.63 145.524 429.222 144.402 429.332 143.153C429.42 141.904 429.003 140.697 428.169 139.744L424.526 135.807Z" fill="#FE5244"/>
<path d="M432.625 146.604C429.552 146.604 426.721 144.635 425.843 141.65L423.977 135.151C423.89 134.812 424.087 134.473 424.438 134.367L431.176 132.568C432.976 132.081 434.863 132.314 436.487 133.182C438.112 134.071 439.297 135.51 439.801 137.246L439.977 137.86C440.482 139.596 440.24 141.417 439.341 142.984C438.419 144.55 436.926 145.693 435.127 146.18L434.49 146.35C433.854 146.54 433.239 146.604 432.625 146.604ZM427.116 141.311C427.972 144.212 431.11 145.948 434.117 145.143L434.754 144.974C436.224 144.571 437.431 143.661 438.177 142.391C438.924 141.121 439.099 139.639 438.704 138.22L438.529 137.606C438.112 136.188 437.168 135.024 435.851 134.304C434.534 133.584 432.998 133.415 431.527 133.796L425.426 135.426L427.116 141.311Z" fill="#FE5244"/>
<path d="M328.351 550.344C328.307 550.344 328.264 550.344 328.22 550.323C327.869 550.26 327.627 549.921 327.715 549.561L365.948 376.958C366.013 376.62 366.365 376.387 366.738 376.472C367.089 376.535 367.33 376.874 367.243 377.234L328.988 549.836C328.922 550.132 328.659 550.344 328.351 550.344Z" fill="#FFCF2D"/>
<path d="M502.659 550.345C502.352 550.345 502.088 550.133 502.023 549.837L463.79 377.234C463.724 376.896 463.944 376.557 464.295 376.472C464.646 376.409 464.997 376.62 465.085 376.959L503.317 549.561C503.383 549.9 503.164 550.239 502.813 550.324C502.747 550.345 502.703 550.345 502.659 550.345Z" fill="#FFCF2D"/>
<path d="M493.661 512.026H336.823C336.45 512.026 336.165 511.751 336.165 511.391C336.165 511.031 336.45 510.756 336.823 510.756H493.661C494.034 510.756 494.319 511.031 494.319 511.391C494.319 511.751 494.034 512.026 493.661 512.026Z" fill="#FFCF2D"/>
<path d="M494.516 377.106H336.471C334.474 377.106 332.85 375.54 332.85 373.613V364.319C332.85 362.393 334.474 360.826 336.471 360.826H494.516C496.513 360.826 498.137 362.393 498.137 364.319V373.613C498.137 375.54 496.513 377.106 494.516 377.106Z" fill="white"/>
<path d="M494.516 377.742H336.472C334.101 377.742 332.192 375.9 332.192 373.614V364.32C332.192 362.033 334.101 360.191 336.472 360.191H494.516C496.887 360.191 498.796 362.033 498.796 364.32V373.614C498.796 375.9 496.887 377.742 494.516 377.742ZM336.472 361.462C334.848 361.462 333.509 362.753 333.509 364.32V373.614C333.509 375.18 334.848 376.472 336.472 376.472H494.516C496.14 376.472 497.479 375.18 497.479 373.614V364.32C497.479 362.753 496.14 361.462 494.516 361.462H336.472Z" fill="#66B0F0"/>
</svg>
