<svg width="15" height="16" viewBox="0 0 15 16" fill="none" xmlns="http://www.w3.org/2000/svg">
<path fill-rule="evenodd" clip-rule="evenodd" d="M4.63297 0.833984C5.00116 0.833984 5.29964 1.13246 5.29964 1.50065V1.83399L9.96631 1.834V1.50065C9.96631 1.13246 10.2648 0.833985 10.633 0.833984C11.0012 0.833984 11.2996 1.13246 11.2996 1.50065V1.834L12.133 1.83401C13.6057 1.83401 14.7996 3.02792 14.7996 4.50067V12.5006C14.7996 13.9734 13.6057 15.1673 12.133 15.1673L3.13298 15.1673C1.66021 15.1673 0.466309 13.9734 0.466309 12.5007L0.466309 6.00078L0.466309 4.50065C0.466309 3.02789 1.66022 1.83398 3.13298 1.83399L3.96631 1.83399V1.50065C3.96631 1.13246 4.26478 0.833984 4.63297 0.833984ZM3.96631 3.16732L3.13298 3.16732C2.3966 3.16732 1.79964 3.76427 1.79964 4.50065V5.33398H13.4663V4.50067C13.4663 3.76429 12.8694 3.16734 12.133 3.16734L11.2996 3.16734V3.50065C11.2996 3.86884 11.0012 4.16732 10.633 4.16732C10.2648 4.16732 9.96631 3.86884 9.96631 3.50065V3.16734L5.29964 3.16733V3.50065C5.29964 3.86884 5.00116 4.16732 4.63297 4.16732C4.26478 4.16732 3.96631 3.86884 3.96631 3.50065V3.16732ZM13.4663 6.66732H1.79964L1.79964 12.5007C1.79964 13.237 2.39659 13.834 3.13298 13.834L12.133 13.834C12.8694 13.834 13.4663 13.237 13.4663 12.5006V6.66732Z" fill="#787A80"/>
</svg>
